<?xml version="1.0" encoding="UTF-8"?>
<svg version="1.1" xmlns="http://www.w3.org/2000/svg" width="128" height="128">
<path d="M0 0 C42.24 0 84.48 0 128 0 C128 42.24 128 84.48 128 128 C85.76 128 43.52 128 0 128 C0 85.76 0 43.52 0 0 Z " fill="#EDEFEF" transform="translate(0,0)"/>
<path d="M0 0 C8.14405148 3.83170947 12.98950752 9.12273286 16.5625 17.375 C17.375 20.375 17.375 20.375 17.5625 23.375 C17.61277344 24.04015625 17.66304688 24.7053125 17.71484375 25.390625 C18.0972206 34.13940723 16.18967523 40.92918695 10.4375 47.625 C4.291676 53.96971799 -2.25175929 58.05623901 -10.359375 61.4296875 C-12.362079 62.34069195 -14.07078405 63.37255883 -15.875 64.625 C-18.4375 66.375 -18.4375 66.375 -20.4375 66.375 C-21.0975 67.695 -21.7575 69.015 -22.4375 70.375 C-23.7575 70.375 -25.0775 70.375 -26.4375 70.375 C-29.75722691 64.01219009 -30.80200967 58.03129289 -28.74609375 51.015625 C-22.85224029 36.71254965 -12.1079836 29.41931857 1.5625 23.375 C3.98828125 22.67578125 3.98828125 22.67578125 5.5625 22.375 C5.5625 21.715 5.5625 21.055 5.5625 20.375 C-14.27337002 23.31527277 -31.33940347 34.73537835 -43.22265625 50.6875 C-43.62355469 51.244375 -44.02445313 51.80125 -44.4375 52.375 C-45.7575 51.715 -47.0775 51.055 -48.4375 50.375 C-47.89711402 45.40497124 -46.2176632 41.53418399 -43.875 37.1875 C-41.26340212 32.55460235 -41.26340212 32.55460235 -40.4375 27.375 C-44.99708589 27.91539537 -48.26779037 29.10879042 -52.25 31.375 C-53.20519531 31.91125 -54.16039062 32.4475 -55.14453125 33 C-57.32455235 34.18112612 -57.32455235 34.18112612 -58.4375 35.375 C-60.10367115 35.41563832 -61.77138095 35.417721 -63.4375 35.375 C-62.64495676 29.44636483 -59.49363991 26.52294555 -55.4375 22.375 C-54.91414063 21.82714844 -54.39078125 21.27929688 -53.8515625 20.71484375 C-51.36823565 18.35634021 -49.96765851 17.375 -46.5 17.375 C-43.4375 18.375 -43.4375 18.375 -40.0625 19.9375 C-35.68533774 21.67327124 -33.09748281 21.84889656 -28.4375 21.375 C-26.4618438 18.41151571 -26.17373141 17.69479627 -26.0234375 14.36328125 C-25.98476563 13.60595703 -25.94609375 12.84863281 -25.90625 12.06835938 C-25.85984375 10.88983398 -25.85984375 10.88983398 -25.8125 9.6875 C-25.77382813 8.89021484 -25.73515625 8.09292969 -25.6953125 7.27148438 C-25.60117506 5.30636525 -25.51825368 3.3407146 -25.4375 1.375 C-17.55364177 -3.12835538 -8.49524468 -3.10928557 0 0 Z " fill="#F65238" transform="translate(87.4375,38.625)"/>
<path d="M0 0 C2.328125 0.16796875 2.328125 0.16796875 5 1 C6.546875 3.36328125 6.546875 3.36328125 7.75 6.3125 C8.15734375 7.27800781 8.5646875 8.24351563 8.984375 9.23828125 C10.498192 13.35469902 11.12726748 16.77116059 11.1328125 21.16796875 C11.13474609 22.63073242 11.13474609 22.63073242 11.13671875 24.12304688 C11.13285156 25.13431641 11.12898438 26.14558594 11.125 27.1875 C11.13080078 28.72180664 11.13080078 28.72180664 11.13671875 30.28710938 C11.13542969 31.25841797 11.13414063 32.22972656 11.1328125 33.23046875 C11.13168457 34.12145264 11.13055664 35.01243652 11.12939453 35.93041992 C11 38 11 38 10 39 C4.89618326 38.55004135 0.35193074 37.28220739 -4.375 35.375 C-5.35291504 34.98175537 -5.35291504 34.98175537 -6.35058594 34.58056641 C-13.36955978 31.6209049 -19.83918989 27.54773252 -24 21 C-23.6875 18.25 -23.6875 18.25 -23 16 C-13.68103306 15.83714427 -13.68103306 15.83714427 -10.125 16.6875 C-7.9355581 17.18828775 -7.9355581 17.18828775 -5.75 16.125 C-3.37737288 13.24395278 -3.51903771 10.87456538 -3.28125 7.23046875 C-2.91237974 4.30512269 -1.74049767 2.34588816 0 0 Z " fill="#F6563B" transform="translate(48,19)"/>
<path d="M0 0 C0.77923828 0.61488281 0.77923828 0.61488281 1.57421875 1.2421875 C5.2423777 4.07636576 8.51449706 6.59828033 13 8 C11.09329491 9.44909587 9.17826377 10.87622734 7.2109375 12.2421875 C6.58445312 12.67789063 5.95796875 13.11359375 5.3125 13.5625 C4.71050781 13.97628906 4.10851562 14.39007813 3.48828125 14.81640625 C1.85004921 15.9485032 1.85004921 15.9485032 1 18 C0.34 18 -0.32 18 -1 18 C-1.02690844 15.37493198 -1.04679404 12.75013827 -1.0625 10.125 C-1.07087891 9.37863281 -1.07925781 8.63226563 -1.08789062 7.86328125 C-1.11328125 2.2265625 -1.11328125 2.2265625 0 0 Z " fill="#EDE7E6" transform="translate(63,88)"/>
<path d="M0 0 C1.65 0.33 3.3 0.66 5 1 C6.231394 4.69418201 5.64432764 7.2056261 5 11 C3.35 11.33 1.7 11.66 0 12 C-0.33 10.68 -0.66 9.36 -1 8 C-1.66 8 -2.32 8 -3 8 C-2.45276317 4.62537285 -1.9451 2.91765 0 0 Z " fill="#F65E46" transform="translate(48,19)"/>
<path d="M0 0 C0.33 1.32 0.66 2.64 1 4 C-4.75 8 -4.75 8 -7 8 C-7.33 8.99 -7.66 9.98 -8 11 C-8.66 9.68 -9.32 8.36 -10 7 C-8.70982586 6.01886757 -7.41780894 5.04015801 -6.125 4.0625 C-5.04605469 3.24458984 -5.04605469 3.24458984 -3.9453125 2.41015625 C-2 1 -2 1 0 0 Z " fill="#F65B42" transform="translate(74,97)"/>
<path d="M0 0 C5.75 -0.125 5.75 -0.125 8 1 C7.34 2.65 6.68 4.3 6 6 C3.37812506 4.95125002 2.20628639 4.35068687 0.75 1.875 C0.5025 1.25625 0.255 0.6375 0 0 Z " fill="#EEDAD8" transform="translate(28,38)"/>
<path d="M0 0 C2.45811625 3.68717438 2.31118164 5.64345704 2 10 C1.34 10.99 0.68 11.98 0 13 C-1.25069801 10.49860398 -1.13302467 8.72607309 -1.125 5.9375 C-1.12757812 5.03902344 -1.13015625 4.14054687 -1.1328125 3.21484375 C-1 1 -1 1 0 0 Z " fill="#F5644C" transform="translate(59,91)"/>
<path d="M0 0 C0.99 0.33 1.98 0.66 3 1 C3.33 2.65 3.66 4.3 4 6 C2.35 6.33 0.7 6.66 -1 7 C-0.67 4.69 -0.34 2.38 0 0 Z " fill="#EEDEDC" transform="translate(49,24)"/>
</svg>
