<?xml version="1.0" encoding="UTF-8"?>
<svg version="1.1" xmlns="http://www.w3.org/2000/svg" width="128" height="128">
<path d="M0 0 C42.24 0 84.48 0 128 0 C128 42.24 128 84.48 128 128 C85.76 128 43.52 128 0 128 C0 85.76 0 43.52 0 0 Z " fill="#19212D" transform="translate(0,0)"/>
<path d="M0 0 C2.45862401 -0.05383848 4.9160755 -0.09359038 7.375 -0.125 C8.42300781 -0.15013672 8.42300781 -0.15013672 9.4921875 -0.17578125 C11.32897486 -0.19344267 13.16601963 -0.10303261 15 0 C15.66 0.66 16.32 1.32 17 2 C17.66 1.34 18.32 0.68 19 0 C21.56640625 -0.23046875 21.56640625 -0.23046875 24.5625 -0.1875 C26.04943359 -0.17783203 26.04943359 -0.17783203 27.56640625 -0.16796875 C30 0 30 0 31 1 C31.08871273 4.02977804 31.1151935 7.03667022 31.09765625 10.06640625 C31.0962413 10.97502914 31.09482635 11.88365204 31.09336853 12.81980896 C31.08775193 15.73407221 31.07519665 18.64825981 31.0625 21.5625 C31.05748714 23.53320202 31.05292386 25.50390524 31.04882812 27.47460938 C31.03777711 32.31643559 31.02050138 37.15820495 31 42 C32.0372522 41.99214478 32.0372522 41.99214478 33.09545898 41.98413086 C36.20946352 41.963425 39.32345361 41.95036037 42.4375 41.9375 C43.52611328 41.92912109 44.61472656 41.92074219 45.73632812 41.91210938 C46.77080078 41.90888672 47.80527344 41.90566406 48.87109375 41.90234375 C49.82943115 41.89710693 50.78776855 41.89187012 51.77514648 41.88647461 C54 42 54 42 55 43 C55.12487758 44.80927281 55.17570846 46.62396107 55.1875 48.4375 C55.20167969 49.42621094 55.21585937 50.41492188 55.23046875 51.43359375 C55 54 55 54 53 56 C50.41896694 56.17502995 47.94691837 56.23162279 45.3671875 56.1953125 C44.23943405 56.19106766 44.23943405 56.19106766 43.08889771 56.18673706 C40.68410422 56.17552874 38.27968119 56.15042352 35.875 56.125 C34.24609912 56.11497102 32.61719242 56.10584503 30.98828125 56.09765625 C26.99204444 56.07558735 22.99608506 56.04105351 19 56 C18.01 53.03 17.02 50.06 16 47 C10.39 46.67 4.78 46.34 -1 46 C-1.33 47.65 -1.66 49.3 -2 51 C-2.99 53.475 -2.99 53.475 -4 56 C-8.95 56 -13.9 56 -19 56 C-17.59458099 50.37832395 -15.70337569 44.92416764 -13.87182617 39.43017578 C-13.19707076 37.40374302 -12.52711794 35.37576569 -11.85742188 33.34765625 C-9.70242103 26.85531332 -7.45363502 20.43463355 -4.85083008 14.10498047 C-3.69069784 11.23477669 -2.70817795 8.31797512 -1.75 5.375 C-1.24726562 3.83972656 -1.24726562 3.83972656 -0.734375 2.2734375 C-0.49203125 1.52320313 -0.2496875 0.77296875 0 0 Z " fill="#F7F8F9" transform="translate(46,36)"/>
<path d="M0 0 C0.98226562 0.02449219 1.96453125 0.04898438 2.9765625 0.07421875 C5.375 0.3125 5.375 0.3125 6.375 1.3125 C6.46371273 4.34227804 6.4901935 7.34917022 6.47265625 10.37890625 C6.4712413 11.28752914 6.46982635 12.19615204 6.46836853 13.13230896 C6.46275193 16.04657221 6.45019665 18.96075981 6.4375 21.875 C6.43248714 23.84570202 6.42792386 25.81640524 6.42382812 27.78710938 C6.41277711 32.62893559 6.39550138 37.47070495 6.375 42.3125 C7.06650146 42.30726318 7.75800293 42.30202637 8.47045898 42.29663086 C11.58446352 42.275925 14.69845361 42.26286037 17.8125 42.25 C18.90111328 42.24162109 19.98972656 42.23324219 21.11132812 42.22460938 C22.14580078 42.22138672 23.18027344 42.21816406 24.24609375 42.21484375 C25.20443115 42.20960693 26.16276855 42.20437012 27.15014648 42.19897461 C29.375 42.3125 29.375 42.3125 30.375 43.3125 C30.49987758 45.12177281 30.55070846 46.93646107 30.5625 48.75 C30.57667969 49.73871094 30.59085938 50.72742188 30.60546875 51.74609375 C30.375 54.3125 30.375 54.3125 28.375 56.3125 C26.40380859 56.53955078 26.40380859 56.53955078 24.0234375 56.5078125 C23.17265625 56.50136719 22.321875 56.49492188 21.4453125 56.48828125 C20.55585937 56.47152344 19.66640625 56.45476562 18.75 56.4375 C17.40421875 56.42396484 17.40421875 56.42396484 16.03125 56.41015625 C13.81223414 56.3865497 11.59374923 56.3536231 9.375 56.3125 C8.31046021 53.2923817 7.24840312 50.27139768 6.1875 47.25 C5.86942383 46.34419189 5.55134766 45.43838379 5.22363281 44.50512695 C2.90719846 37.88649314 0.6759291 31.24529865 -1.484375 24.57421875 C-2.70815168 21.07472036 -4.15084232 17.71320238 -5.625 14.3125 C-6.2875034 12.59735231 -6.91773534 10.86902128 -7.5 9.125 C-7.78617188 8.30644531 -8.07234375 7.48789062 -8.3671875 6.64453125 C-8.625 4.3125 -8.625 4.3125 -7.546875 2.03125 C-4.95483576 -0.28683387 -3.42913184 -0.1311937 0 0 Z " fill="#02A7FA" transform="translate(70.625,35.6875)"/>
<path d="M0 0 C2.31882635 2.31882635 2.68613242 3.81285956 3.5625 6.9375 C3.81128906 7.81277344 4.06007813 8.68804687 4.31640625 9.58984375 C4.65478516 10.78287109 4.65478516 10.78287109 5 12 C5.33 12.99 5.66 13.98 6 15 C2.7 15 -0.6 15 -4 15 C-2.91266548 9.87399439 -1.77362508 4.94081272 0 0 Z " fill="#2E3541" transform="translate(53,55)"/>
</svg>
