<?xml version="1.0" encoding="UTF-8"?>
<svg version="1.1" xmlns="http://www.w3.org/2000/svg" width="128" height="128">
<path d="M0 0 C42.24 0 84.48 0 128 0 C128 42.24 128 84.48 128 128 C85.76 128 43.52 128 0 128 C0 85.76 0 43.52 0 0 Z " fill="#292B30" transform="translate(0,0)"/>
<path d="M0 0 C1.8253125 0.0309375 1.8253125 0.0309375 3.6875 0.0625 C3.543125 0.59617187 3.39875 1.12984375 3.25 1.6796875 C1.78381589 7.56478763 1.46015503 13.01259776 1.6875 19.0625 C2.22117188 19.28164063 2.75484375 19.50078125 3.3046875 19.7265625 C12.74542264 23.74459164 21.98781747 28.15885392 27.6875 37.0625 C28.38822954 39.01509468 28.80116165 40.8751391 29.171875 42.9140625 C30.43170273 48.16334472 33.02321826 53.53316002 37 57.1875 C38.6875 59.0625 38.6875 59.0625 39.125 62.9375 C38.74669168 69.73443954 35.40109946 73.46386638 30.6875 78.0625 C29.98625 79.135 29.285 80.2075 28.5625 81.3125 C26.6875 84.0625 26.6875 84.0625 23.6875 85.0625 C21.31105983 85.15264813 18.93210105 85.18006299 16.55395508 85.17602539 C15.83175278 85.17617142 15.10955048 85.17631744 14.36546326 85.1764679 C11.97928866 85.17577145 9.59319221 85.1679916 7.20703125 85.16015625 C5.5522211 85.15829112 3.89741039 85.15686766 2.24259949 85.15586853 C-2.11231003 85.15205085 -6.46718618 85.14222695 -10.82208252 85.13116455 C-15.26614938 85.12093433 -19.71022163 85.11636745 -24.15429688 85.11132812 C-32.87371323 85.10060402 -41.59310246 85.08353657 -50.3125 85.0625 C-51.45498793 82.97942848 -52.59307764 80.8941509 -53.72875977 78.80737305 C-54.05140053 78.22016228 -54.37404129 77.63295151 -54.70645905 77.02794647 C-61.19658899 65.07084265 -62.32085595 49.00039928 -59.6328125 35.69921875 C-58.8125 32.9375 -58.8125 32.9375 -57.3125 29.0625 C-53.6825 30.0525 -50.0525 31.0425 -46.3125 32.0625 C-45.343125 30.598125 -44.37375 29.13375 -43.375 27.625 C-34.58125134 15.12304407 -21.91779001 4.16563714 -6.7578125 0.43359375 C-4.45573472 0.0842369 -2.32474455 -0.03940245 0 0 Z " fill="#EBEBEA" transform="translate(60.3125,13.9375)"/>
<path d="M0 0 C1.8253125 0.0309375 1.8253125 0.0309375 3.6875 0.0625 C3.543125 0.59617187 3.39875 1.12984375 3.25 1.6796875 C1.78381589 7.56478763 1.46015503 13.01259776 1.6875 19.0625 C2.22117188 19.28164063 2.75484375 19.50078125 3.3046875 19.7265625 C20.0125 26.8375 20.0125 26.8375 24.6875 34.0625 C24.06685063 35.66835493 23.4408082 37.27212617 22.8125 38.875 C22.46445313 39.76832031 22.11640625 40.66164062 21.7578125 41.58203125 C20.6875 44.0625 20.6875 44.0625 18.6875 47.0625 C19.6775 47.743125 19.6775 47.743125 20.6875 48.4375 C21.3475 48.97375 22.0075 49.51 22.6875 50.0625 C22.6875 50.7225 22.6875 51.3825 22.6875 52.0625 C19.7175 51.7325 16.7475 51.4025 13.6875 51.0625 C13.3575 52.0525 13.0275 53.0425 12.6875 54.0625 C3.07710204 61.29791455 -6.45679948 63.11986459 -18.3125 62.0625 C-29.22522804 59.42787704 -37.34045274 52.35935457 -43.3125 43.0625 C-45.65662278 38.56758415 -46.78978827 35.03016886 -45.3125 30.0625 C-36.91567393 16.50588516 -22.40685239 4.28603323 -6.7578125 0.43359375 C-4.45573472 0.0842369 -2.32474455 -0.03940245 0 0 Z " fill="#FC6741" transform="translate(60.3125,13.9375)"/>
<path d="M0 0 C31.68 0 63.36 0 96 0 C94 4 94 4 93 5 C90.2162277 5.11116827 87.45703456 5.15739703 84.67236328 5.16113281 C83.79921478 5.16609772 82.92606628 5.17106262 82.02645874 5.17617798 C79.12440211 5.19083933 76.22240015 5.19760821 73.3203125 5.203125 C71.31110634 5.20887322 69.3019002 5.21463098 67.29269409 5.22039795 C63.07419579 5.23091928 58.85571662 5.23675451 54.63720703 5.24023438 C49.22409815 5.24572125 43.81124054 5.26974869 38.39821053 5.29820633 C34.24615738 5.31680387 30.0941651 5.32203677 25.94207382 5.32357025 C23.94612123 5.32660388 21.95016988 5.33465617 19.95425797 5.34775543 C17.16478462 5.36475568 14.3759295 5.36295049 11.58642578 5.35644531 C10.34261139 5.37026749 10.34261139 5.37026749 9.07366943 5.3843689 C3.42583319 5.34297992 3.42583319 5.34297992 1.2643261 3.60203171 C0 2 0 2 0 0 Z " fill="#FD663F" transform="translate(16,105)"/>
<path d="M0 0 C24.42 0 48.84 0 74 0 C67.60239149 5.11808681 67.60239149 5.11808681 61.3762207 5.17700195 C60.19772049 5.18983719 59.01922028 5.20267242 57.80500793 5.21589661 C55.88479073 5.22697701 55.88479073 5.22697701 53.92578125 5.23828125 C52.61345016 5.246353 51.30111908 5.25442474 49.94902039 5.26274109 C47.16564055 5.27777207 44.38228626 5.28760678 41.59887695 5.29516602 C38.04576047 5.30620211 34.49327519 5.34056688 30.94038105 5.38033772 C27.53970718 5.41289327 24.13909887 5.41729126 20.73828125 5.42578125 C18.83324577 5.45204338 18.83324577 5.45204338 16.88972473 5.47883606 C10.04300084 5.46206372 5.55374993 5.14927079 0 1 C0 0.67 0 0.34 0 0 Z " fill="#FC663F" transform="translate(27,116)"/>
<path d="M0 0 C-0.47566406 0.67289063 -0.95132813 1.34578125 -1.44140625 2.0390625 C-3.29741237 5.56500896 -3.51690359 8.42539945 -3.9375 12.375 C-4.58152953 16.68890097 -5.37623153 19.43448577 -8.71875 22.46484375 C-11.75896688 24.21001679 -14.76116576 25.66533945 -18 27 C-19.33813226 27.65698119 -20.67377142 28.31930919 -22 29 C-22.82933118 20.70668822 -20.51060378 14.95921726 -16 8 C-12.11578424 3.56834443 -6.039856 -2.01328533 0 0 Z " fill="#F1EBE9" transform="translate(64,17)"/>
<path d="M0 0 C0.78246094 -0.01417969 1.56492187 -0.02835938 2.37109375 -0.04296875 C4.5625 0.1875 4.5625 0.1875 7.5625 2.1875 C7.5625 2.8475 7.5625 3.5075 7.5625 4.1875 C2.6125 4.1875 -2.3375 4.1875 -7.4375 4.1875 C-7.1075 3.1975 -6.7775 2.2075 -6.4375 1.1875 C-4.0978331 0.01766655 -2.60358473 0.0213759 0 0 Z " fill="#212D33" transform="translate(75.4375,61.8125)"/>
<path d="M0 0 C0.99 0 1.98 0 3 0 C4.60725635 3.21451269 4.05748185 6.43612536 4 10 C3.67 9.34 3.34 8.68 3 8 C0.98330173 6.86649466 0.98330173 6.86649466 -1 6 C-1.042721 4.33388095 -1.04063832 2.66617115 -1 1 C-0.67 0.67 -0.34 0.34 0 0 Z " fill="#F483AD" transform="translate(95,71)"/>
<path d="M0 0 C1.55521077 3.11042154 0.96425701 6.26364711 0.83984375 9.6875 C0.75938638 12.19709447 0.75938638 12.19709447 3 14 C1.35 14 -0.3 14 -2 14 C-2.33 14.66 -2.66 15.32 -3 16 C-3.37851209 10.06997733 -2.10575375 5.52760359 0 0 Z " fill="#CF7762" transform="translate(61,21)"/>
<path d="M0 0 C0 0.66 0 1.32 0 2 C-3.71888239 1.49287967 -6.73454239 0.88391785 -10 -1 C-5.92224809 -1.9267618 -3.57818963 -2.33958553 0 0 Z " fill="#2D3136" transform="translate(83,64)"/>
</svg>
