<?xml version="1.0" encoding="UTF-8"?>
<svg version="1.1" xmlns="http://www.w3.org/2000/svg" width="128" height="128">
<path d="M0 0 C0.66 0 1.32 0 2 0 C3.625 2.5 3.625 2.5 5 5 C5.78761719 4.855625 6.57523438 4.71125 7.38671875 4.5625 C24.92546645 1.57364832 38.2669006 2.89548759 53.25390625 12.72558594 C57.37864553 15.73609196 60.82766678 19.46187157 64.3125 23.171875 C66.57753381 25.55542802 68.86271812 27.69989933 71.375 29.8125 C80.68484978 37.83092134 86.19345926 46.81507399 87.71875 59.1640625 C88.06324743 63.86262461 88.24769563 68.53972268 88.3125 73.25 C88.33030518 74.07741699 88.34811035 74.90483398 88.36645508 75.75732422 C88.35773861 82.47436559 87.405488 88.853131 83.23828125 94.3046875 C78.63180114 98.06088426 74.61926572 100.09516416 69 102 C67.29476246 103.5010321 67.29476246 103.5010321 66 105 C66 104.34 66 103.68 66 103 C65.34 103 64.68 103 64 103 C67.20573466 106.21237179 70.4229818 109.41285851 73.64453125 112.609375 C75.36725036 114.32285347 77.08990492 116.03639684 78.8125 117.75 C79.69615234 118.62527344 80.57980469 119.50054687 81.49023438 120.40234375 C82.32490234 121.23378906 83.15957031 122.06523438 84.01953125 122.921875 C84.78370361 123.68081055 85.54787598 124.43974609 86.33520508 125.22167969 C88 127 88 127 88 128 C60.28 128 32.56 128 4 128 C4.99 124.37 5.98 120.74 7 117 C3.88214887 117.64644661 3.88214887 117.64644661 3 120 C2.4225 120.12375 1.845 120.2475 1.25 120.375 C-1.78029486 121.21674857 -3.56321939 123.03868878 -6 125 C-9.86499553 127.19364611 -12.61275521 127.01123691 -16.95703125 126.26953125 C-19.248778 125.89202908 -19.248778 125.89202908 -22.5625 126.3125 C-27.32241057 125.87978086 -29.92725396 123.56751023 -33 120 C-34.1577506 116.52674819 -34.06866652 113.63932552 -34 110 C-35.2065625 109.5359375 -35.2065625 109.5359375 -36.4375 109.0625 C-39 108 -39 108 -40 107 C-40.14115161 104.32941149 -40.04247107 101.67567762 -40 99 C-39.360625 99.804375 -38.72125 100.60875 -38.0625 101.4375 C-36.59396498 103.2750504 -36.59396498 103.2750504 -35 105 C-35.1071936 104.12819092 -35.1071936 104.12819092 -35.21655273 103.23876953 C-35.98381947 96.42919347 -36.11912783 89.72261099 -36.0625 82.875 C-36.05798828 81.823125 -36.05347656 80.77125 -36.04882812 79.6875 C-36.03718011 77.12493779 -36.02082553 74.56250123 -36 72 C-36.99 74.64 -37.98 77.28 -39 80 C-39.33 80 -39.66 80 -40 80 C-41.05279808 69.68257885 -36.2736119 59.33099641 -31.94921875 50.15234375 C-30.88818755 47.74646641 -30.07922818 45.3074267 -29.25 42.8125 C-26.36802821 34.66228379 -21.78127384 27.17191076 -17 20 C-16.34 20 -15.68 20 -15 20 C-14.67 19.01 -14.34 18.02 -14 17 C-11.8203125 15.24609375 -11.8203125 15.24609375 -9.125 13.4375 C-8.24070312 12.83808594 -7.35640625 12.23867187 -6.4453125 11.62109375 C-5.63835938 11.08613281 -4.83140625 10.55117187 -4 10 C-3.01 9.34 -2.02 8.68 -1 8 C-0.83333333 5 -0.83333333 5 -1 2 C-0.67 1.34 -0.34 0.68 0 0 Z M72 35 C73 37 73 37 73 37 Z M73 37 C74.59623144 41.39383706 76.78024333 45.28995807 79.125 49.3125 C79.49753906 49.95767578 79.87007813 50.60285156 80.25390625 51.26757812 C81.16632213 52.84675945 82.08275509 54.42361864 83 56 C83.33 56 83.66 56 84 56 C83.84193722 48.8871748 80.35588769 43.49716831 76 38 C75.01 37.67 74.02 37.34 73 37 Z M-30 111 C-30.08131463 112.43655854 -30.13933559 113.8744483 -30.1875 115.3125 C-30.22230469 116.11300781 -30.25710937 116.91351563 -30.29296875 117.73828125 C-30.16513659 120.04058332 -30.16513659 120.04058332 -28.80078125 121.79296875 C-26.6690966 123.46398129 -26.6690966 123.46398129 -22 123 C-23.65 119.04 -25.3 115.08 -27 111 C-27.99 111 -28.98 111 -30 111 Z M-2 114 C-2.33 115.32 -2.66 116.64 -3 118 C-2.01 117.67 -1.02 117.34 0 117 C-0.66 116.01 -1.32 115.02 -2 114 Z M7 115 C8 117 8 117 8 117 Z " fill="#E1B4A4" transform="translate(40,0)"/>
<path d="M0 0 C0.66 0.33 1.32 0.66 2 1 C1.01 5.95 0.02 10.9 -1 16 C-1.66 16 -2.32 16 -3 16 C-2.97679687 16.76183594 -2.95359375 17.52367188 -2.9296875 18.30859375 C-2.91164062 19.34113281 -2.89359375 20.37367187 -2.875 21.4375 C-2.85179687 22.44683594 -2.82859375 23.45617187 -2.8046875 24.49609375 C-2.96296749 27.33563671 -3.3239795 29.558273 -4 32.28125 C-5.18234448 37.24929995 -5.22756487 41.97764917 -5.125 47.0625 C-5.11597656 47.92810547 -5.10695313 48.79371094 -5.09765625 49.68554688 C-5.07439723 51.79048779 -5.03854008 53.89528342 -5 56 C-4.34 55.34 -3.68 54.68 -3 54 C-0.31160615 53.73008094 2.29141936 53.91262643 5 54 C5.66 55.65 6.32 57.3 7 59 C9.41645782 59.16687448 9.41645782 59.16687448 12 59 C12.66 58.34 13.32 57.68 14 57 C15.093125 56.87625 16.18625 56.7525 17.3125 56.625 C21.47354028 55.91973894 22.84236483 54.67184515 26 52 C29.3125 50.75 29.3125 50.75 32 50 C32 49.34 32 48.68 32 48 C31.21625 48.495 30.4325 48.99 29.625 49.5 C27 51 27 51 25 51 C25.185625 50.05125 25.37125 49.1025 25.5625 48.125 C26.28686632 45.10131207 26.28686632 45.10131207 25 43 C25.99 43 26.98 43 28 43 C28.66 41.68 29.32 40.36 30 39 C31.5 40.375 31.5 40.375 33 42 C33 42.66 33 43.32 33 44 C34.65 43.67 36.3 43.34 38 43 C36.35 41.35 34.7 39.7 33 38 C33.66 37.67 34.32 37.34 35 37 C34.505 36.54625 34.01 36.0925 33.5 35.625 C32 34 32 34 32 32 C34.97 32.33 37.94 32.66 41 33 C41 33.66 41 34.32 41 35 C41.680625 35.226875 42.36125 35.45375 43.0625 35.6875 C46.19163795 37.08562547 48.63923377 38.81090901 51.3515625 40.87890625 C53.12060315 42.19132292 53.12060315 42.19132292 56 43 C56.495 42.01 56.495 42.01 57 41 C58.32 43.31 59.64 45.62 61 48 C60.67 48.33 60.34 48.66 60 49 C57.66055264 48.71269945 55.3260857 48.38063221 53 48 C53.061875 48.78375 53.12375 49.5675 53.1875 50.375 C53.0946875 51.674375 53.0946875 51.674375 53 53 C52.01 53.66 51.02 54.32 50 55 C49.5875 56.2375 49.175 57.475 48.75 58.75 C47.00194016 63.58806462 44.72906719 66.76839589 40 69 C35.48546285 69.88266791 31.50196951 69.98697024 27 69 C24.24097007 67.07959608 22.49128599 65.00981008 21 62 C21 61.34 21 60.68 21 60 C18.03 60.66 15.06 61.32 12 62 C12.061875 63.381875 12.12375 64.76375 12.1875 66.1875 C12.1875 70.29569794 11.67122715 72.73516682 9 76 C4.94641576 78.70238949 2.81689896 78.22937614 -2 78 C-2.99 77.505 -2.99 77.505 -4 77 C-3.505 77.94875 -3.01 78.8975 -2.5 79.875 C-1 83 -1 83 -1 85 C9.01777354 90.11921467 18.97257024 90.98885488 30 92 C30 93.32 30 94.64 30 96 C29.01 95.505 29.01 95.505 28 95 C28.33 94.34 28.66 93.68 29 93 C27.9171875 93.99 27.9171875 93.99 26.8125 95 C24 97 24 97 21.5 96.9375 C18.72521051 96.74291577 18.72521051 96.74291577 16.3125 99.3125 C13.93582962 101.9638405 13.93582962 101.9638405 12 105 C12 103.68 12 102.36 12 101 C8.88214887 101.64644661 8.88214887 101.64644661 8 104 C7.4225 104.12375 6.845 104.2475 6.25 104.375 C3.21970514 105.21674857 1.43678061 107.03868878 -1 109 C-4.86499553 111.19364611 -7.61275521 111.01123691 -11.95703125 110.26953125 C-14.248778 109.89202908 -14.248778 109.89202908 -17.5625 110.3125 C-22.32241057 109.87978086 -24.92725396 107.56751023 -28 104 C-29.1577506 100.52674819 -29.06866652 97.63932552 -29 94 C-30.2065625 93.5359375 -30.2065625 93.5359375 -31.4375 93.0625 C-34 92 -34 92 -35 91 C-35.14115161 88.32941149 -35.04247107 85.67567762 -35 83 C-34.360625 83.804375 -33.72125 84.60875 -33.0625 85.4375 C-31.59396498 87.2750504 -31.59396498 87.2750504 -30 89 C-30.1071936 88.12819092 -30.1071936 88.12819092 -30.21655273 87.23876953 C-30.98381947 80.42919347 -31.11912783 73.72261099 -31.0625 66.875 C-31.05798828 65.823125 -31.05347656 64.77125 -31.04882812 63.6875 C-31.03718011 61.12493779 -31.02082553 58.56250123 -31 56 C-31.99 58.64 -32.98 61.28 -34 64 C-34.33 64 -34.66 64 -35 64 C-36.05252952 53.68521071 -31.27478749 43.35174778 -26.9609375 34.171875 C-25.8480525 31.65657395 -24.96015008 29.09959464 -24.0625 26.5 C-19.19108977 13.05641828 -19.19108977 13.05641828 -13.5 10.3125 C-11.7675 9.6628125 -11.7675 9.6628125 -10 9 C-8.2856382 7.04072937 -6.61594832 5.04119788 -5 3 C-2.3125 1.0625 -2.3125 1.0625 0 0 Z M-25 95 C-25.08131463 96.43655854 -25.13933559 97.8744483 -25.1875 99.3125 C-25.22230469 100.11300781 -25.25710937 100.91351563 -25.29296875 101.73828125 C-25.16513659 104.04058332 -25.16513659 104.04058332 -23.80078125 105.79296875 C-21.6690966 107.46398129 -21.6690966 107.46398129 -17 107 C-18.65 103.04 -20.3 99.08 -22 95 C-22.99 95 -23.98 95 -25 95 Z M3 98 C2.67 99.32 2.34 100.64 2 102 C2.99 101.67 3.98 101.34 5 101 C4.34 100.01 3.68 99.02 3 98 Z M12 99 C13 101 13 101 13 101 Z " fill="#E1B4A5" transform="translate(35,16)"/>
<path d="M0 0 C0.66 0 1.32 0 2 0 C2.10867663 3.02181414 2.18762754 6.03966327 2.25 9.0625 C2.30027344 10.33383789 2.30027344 10.33383789 2.3515625 11.63085938 C2.44487624 17.67292422 1.57770043 21.08605002 -2 26 C-4.25390625 28.14453125 -4.25390625 28.14453125 -6.5625 29.8125 C-7.32691406 30.37582031 -8.09132812 30.93914062 -8.87890625 31.51953125 C-10.57137482 32.70083068 -12.28268403 33.85512269 -14 35 C-13.34 35 -12.68 35 -12 35 C-11.67 35.99 -11.34 36.98 -11 38 C-10.67 37.01 -10.34 36.02 -10 35 C-8.68 35 -7.36 35 -6 35 C-6 36.65 -6 38.3 -6 40 C-5.01 40 -4.02 40 -3 40 C-3 42.64 -3 45.28 -3 48 C-2.34 47.67 -1.68 47.34 -1 47 C4.06762843 47.1166003 9.54798435 47.41495866 14 50 C15 53 15 53 13 59 C-5.15 59 -23.3 59 -42 59 C-41.34 56.69 -40.68 54.38 -40 52 C-39.34 52 -38.68 52 -38 52 C-37.938125 51.443125 -37.87625 50.88625 -37.8125 50.3125 C-36.62311214 46.92731917 -34.75140329 45.25114815 -32 43 C-29.375 42.875 -29.375 42.875 -27 43 C-25.31201173 41.56249809 -25.31201173 41.56249809 -24 40 C-23.34 40 -22.68 40 -22 40 C-21.67 40.99 -21.34 41.98 -21 43 C-21 41.68 -21 40.36 -21 39 C-22.2375 39.04125 -23.475 39.0825 -24.75 39.125 C-34.38416855 39.10980415 -44.27533887 37.90298094 -51.875 31.625 C-54.05504603 28.93200196 -54.70802098 27.40642186 -55 24 C-54.32453125 24.03480469 -53.6490625 24.06960937 -52.953125 24.10546875 C-52.06109375 24.13253906 -51.1690625 24.15960938 -50.25 24.1875 C-49.36828125 24.22230469 -48.4865625 24.25710937 -47.578125 24.29296875 C-44.40963339 23.93291288 -43.172928 23.33406648 -41 21 C-40.19628884 18.11704513 -40.19628884 18.11704513 -39.9375 14.9375 C-39.58984375 11.71484375 -39.58984375 11.71484375 -39 9 C-35.49812047 6.66541365 -34.11971953 6.32739273 -30 7 C-27.75 9.875 -27.75 9.875 -26 13 C-23.27710387 15.72289613 -21.61607119 15.39495315 -17.8125 15.5 C-13.41608628 15.42227335 -10.37410469 15.26918393 -6.875 12.5 C-3.60250018 9.10599648 -2.36051559 5.45946778 -1 1 C-0.67 0.67 -0.34 0.34 0 0 Z " fill="#FDEBED" transform="translate(86,69)"/>
<path d="M0 0 C2.97 0.33 5.94 0.66 9 1 C9 1.66 9 2.32 9 3 C9.680625 3.226875 10.36125 3.45375 11.0625 3.6875 C14.19163795 5.08562547 16.63923377 6.81090901 19.3515625 8.87890625 C21.12060315 10.19132292 21.12060315 10.19132292 24 11 C24.33 10.34 24.66 9.68 25 9 C26.32 11.31 27.64 13.62 29 16 C28.505 16.495 28.505 16.495 28 17 C25.66055264 16.71269945 23.3260857 16.38063221 21 16 C21.061875 16.78375 21.12375 17.5675 21.1875 18.375 C21.0946875 19.674375 21.0946875 19.674375 21 21 C20.01 21.66 19.02 22.32 18 23 C17.5875 24.2375 17.175 25.475 16.75 26.75 C15.00194016 31.58806462 12.72906719 34.76839589 8 37 C3.48546285 37.88266791 -0.49803049 37.98697024 -5 37 C-7.75902993 35.07959608 -9.50871401 33.00981008 -11 30 C-11 29.34 -11 28.68 -11 28 C-13.97 28.66 -16.94 29.32 -20 30 C-19.938125 31.381875 -19.87625 32.76375 -19.8125 34.1875 C-19.8125 38.29569794 -20.32877285 40.73516682 -23 44 C-27.05358424 46.70238949 -29.18310104 46.22937614 -34 46 C-34.66 45.67 -35.32 45.34 -36 45 C-35.505 45.94875 -35.01 46.8975 -34.5 47.875 C-33 51 -33 51 -33 53 C-22.98222646 58.11921467 -13.02742976 58.98885488 -2 60 C-2 61.32 -2 62.64 -2 64 C-2.99 63.505 -2.99 63.505 -4 63 C-3.505 62.01 -3.505 62.01 -3 61 C-4.0828125 61.99 -4.0828125 61.99 -5.1875 63 C-8 65 -8 65 -10.5 64.9375 C-13.27478949 64.74291577 -13.27478949 64.74291577 -15.6875 67.3125 C-18.06417038 69.9638405 -18.06417038 69.9638405 -20 73 C-20 71.68 -20 70.36 -20 69 C-23.11785113 69.64644661 -23.11785113 69.64644661 -24 72 C-25.9375 72.5625 -25.9375 72.5625 -28 73 C-28.99 73.495 -28.99 73.495 -30 74 C-36.60545793 70.95132711 -41.0584667 66.71423762 -44.4375 60.25 C-45 58 -45 58 -44 55 C-43.87294728 52.15307832 -43.87294728 52.15307832 -44.50390625 50.08203125 C-45.03790012 47.84093887 -45.03132041 45.98406055 -44.9375 43.6875 C-44.89512185 38.47498704 -46.13491387 34.22545057 -48.0234375 29.3671875 C-50.09426901 23.97715088 -51.51444425 19.78749776 -51 14 C-50.67 14 -50.34 14 -50 14 C-49.81824219 14.63808594 -49.63648437 15.27617188 -49.44921875 15.93359375 C-49.19785156 16.75988281 -48.94648437 17.58617188 -48.6875 18.4375 C-48.44386719 19.26121094 -48.20023438 20.08492187 -47.94921875 20.93359375 C-47.63597656 21.61550781 -47.32273437 22.29742187 -47 23 C-46.01 23.33 -45.02 23.66 -44 24 C-44 25.98 -44 27.96 -44 30 C-42.73609288 28.96528543 -42.73609288 28.96528543 -42.9375 26.70703125 C-42.958125 25.75183594 -42.97875 24.79664062 -43 23.8125 C-43.0423452 19.74736054 -42.86314374 15.9920398 -42 12 C-40.68 12.33 -39.36 12.66 -38 13 C-37.67 16.63 -37.34 20.26 -37 24 C-36.34 23.34 -35.68 22.68 -35 22 C-32.31160615 21.73008094 -29.70858064 21.91262643 -27 22 C-26.34 23.65 -25.68 25.3 -25 27 C-22.58354218 27.16687448 -22.58354218 27.16687448 -20 27 C-19.34 26.34 -18.68 25.68 -18 25 C-16.906875 24.87625 -15.81375 24.7525 -14.6875 24.625 C-10.52645972 23.91973894 -9.15763517 22.67184515 -6 20 C-2.6875 18.75 -2.6875 18.75 0 18 C0 17.34 0 16.68 0 16 C-0.78375 16.495 -1.5675 16.99 -2.375 17.5 C-5 19 -5 19 -7 19 C-6.7215625 17.576875 -6.7215625 17.576875 -6.4375 16.125 C-5.71313368 13.10131207 -5.71313368 13.10131207 -7 11 C-6.01 11 -5.02 11 -4 11 C-3.34 9.68 -2.68 8.36 -2 7 C-0.5 8.375 -0.5 8.375 1 10 C1 10.66 1 11.32 1 12 C2.65 11.67 4.3 11.34 6 11 C3.525 8.525 3.525 8.525 1 6 C1.66 5.67 2.32 5.34 3 5 C2.505 4.54625 2.01 4.0925 1.5 3.625 C0 2 0 2 0 0 Z M-29 66 C-29.33 67.32 -29.66 68.64 -30 70 C-29.01 69.67 -28.02 69.34 -27 69 C-27.66 68.01 -28.32 67.02 -29 66 Z M-20 67 C-19 69 -19 69 -19 69 Z " fill="#AB2E50" transform="translate(67,48)"/>
<path d="M0 0 C9.77584416 5.51501929 16.14772259 13.50091174 20 24 C22.08238796 31.605243 22.19833304 39.41149876 22.3125 47.25 C22.33038574 48.07757813 22.34827148 48.90515625 22.36669922 49.7578125 C22.3573105 56.4747694 21.40548377 62.85313653 17.23828125 68.3046875 C12.63180114 72.06088426 8.61926572 74.09516416 3 76 C1.29476246 77.5010321 1.29476246 77.5010321 0 79 C0 78.34 0 77.68 0 77 C-0.66 77 -1.32 77 -2 77 C1.20573466 80.21237179 4.4229818 83.41285851 7.64453125 86.609375 C9.36725036 88.32285347 11.08990492 90.03639684 12.8125 91.75 C13.69615234 92.62527344 14.57980469 93.50054687 15.49023438 94.40234375 C16.32490234 95.23378906 17.15957031 96.06523438 18.01953125 96.921875 C18.78370361 97.68081055 19.54787598 98.43974609 20.33520508 99.22167969 C22 101 22 101 22 102 C12.43 102 2.86 102 -7 102 C-6.67 99.36 -6.34 96.72 -6 94 C-11.89738492 91.70657253 -16.66606918 90.65451286 -23 91 C-23.33 92.32 -23.66 93.64 -24 95 C-24.08159574 90.83861737 -23.98248524 87.0527516 -23 83 C-23.99 83 -24.98 83 -26 83 C-26 81.35 -26 79.7 -26 78 C-27.32 78 -28.64 78 -30 78 C-30.33 80.31 -30.66 82.62 -31 85 C-31.33 85 -31.66 85 -32 85 C-32 82.69 -32 80.38 -32 78 C-33.98 78.495 -33.98 78.495 -36 79 C-33.74288577 76.56260508 -31.37526784 74.88001535 -28.5625 73.125 C-20.46989017 67.72118274 -18.95861638 62.30342779 -17 53 C-16.67 53 -16.34 53 -16 53 C-15.70085008 61.59225061 -16.26560573 69.79681718 -19 78 C-16.525 77.505 -16.525 77.505 -14 77 C-13.505 77.99 -13.505 77.99 -13 79 C-9.89698316 78.35342991 -9.89698316 78.35342991 -9 76.0625 C-8.67 75.381875 -8.34 74.70125 -8 74 C-6.515 73.01 -6.515 73.01 -5 72 C-4.67 72.99 -4.34 73.98 -4 75 C-3.855625 74.41476563 -3.71125 73.82953125 -3.5625 73.2265625 C-3.06800787 71.26919784 -2.53687363 69.3211669 -2 67.375 C-0.80166425 62.63531381 -0.37876751 57.86417218 0 53 C0.33 53 0.66 53 1 53 C1.02703381 54.93742341 1.04641125 56.87495479 1.0625 58.8125 C1.07410156 59.89144531 1.08570313 60.97039062 1.09765625 62.08203125 C1 65 1 65 0 68 C-0.03954234 70.33299825 -0.04401732 72.66708189 0 75 C2.97068161 70.6147081 4.45941767 66.01508715 6 61 C6.33 61 6.66 61 7 61 C6.125 68.625 6.125 68.625 5 72 C10.70442739 66.59580563 12.23301172 62.98543933 13.125 55.25 C13.21136719 54.55261719 13.29773438 53.85523438 13.38671875 53.13671875 C13.59771846 51.42527668 13.79975501 49.71273371 14 48 C14.33 48 14.66 48 15 48 C15.02705729 49.77074917 15.04642195 51.54161711 15.0625 53.3125 C15.07410156 54.29863281 15.08570313 55.28476563 15.09765625 56.30078125 C15 59 15 59 14 62 C17.27773504 61.24849977 17.27773504 61.24849977 19 58 C19.84565035 50.88335813 18.90230353 44.35800247 16.75390625 37.5703125 C16 35 16 35 15.62890625 32.0703125 C14.87338712 28.38187747 13.37779019 25.92573902 11.375 22.75 C10.19122721 20.86906457 9.04980888 18.95886126 8 17 C8.33 16.34 8.66 15.68 9 15 C11.64 19.29 14.28 23.58 17 28 C16.08108727 23.40543634 15.1702417 21.16910253 12.75 17.3125 C12.16734375 16.35988281 11.5846875 15.40726563 10.984375 14.42578125 C8.76306058 11.71035556 7.22568595 11.18153164 4 10 C1.488918 7.0140429 0 3.94623899 0 0 Z " fill="#B48489" transform="translate(106,26)"/>
<path d="M0 0 C0.33 0.99 0.66 1.98 1 3 C1.33 2.01 1.66 1.02 2 0 C3.32 0 4.64 0 6 0 C6 1.65 6 3.3 6 5 C6.99 5 7.98 5 9 5 C9 7.64 9 10.28 9 13 C9.66 12.67 10.32 12.34 11 12 C16.06762843 12.1166003 21.54798435 12.41495866 26 15 C27 18 27 18 25 24 C6.85 24 -11.3 24 -30 24 C-29.01 20.535 -29.01 20.535 -28 17 C-27.34 17 -26.68 17 -26 17 C-25.938125 16.443125 -25.87625 15.88625 -25.8125 15.3125 C-24.62311214 11.92731917 -22.75140329 10.25114815 -20 8 C-17.375 7.875 -17.375 7.875 -15 8 C-13.31201173 6.56249809 -13.31201173 6.56249809 -12 5 C-11.34 5 -10.68 5 -10 5 C-10 4.34 -10 3.68 -10 3 C-8.70990357 2.49596232 -7.41786211 1.99690074 -6.125 1.5 C-5.04605469 1.08234375 -5.04605469 1.08234375 -3.9453125 0.65625 C-2 0 -2 0 0 0 Z " fill="#E9C3BA" transform="translate(74,104)"/>
<path d="M0 0 C1.32 0.33 2.64 0.66 4 1 C4.33 4.63 4.66 8.26 5 12 C5.66 11.34 6.32 10.68 7 10 C9.68839385 9.73008094 12.29141936 9.91262643 15 10 C14.67 10.66 14.34 11.32 14 12 C12.02 12 10.04 12 8 12 C8.33 13.65 8.66 15.3 9 17 C8.34 17 7.68 17 7 17 C7 17.66 7 18.32 7 19 C5.04072937 20.7143618 3.04119788 22.38405168 1 24 C2.21764726 28.56617723 3.28509601 30.24378091 7 33 C7.6875 35.5 7.6875 35.5 8 38 C8.65984582 41.06815126 8.65984582 41.06815126 10.8359375 42.09375 C20.43959706 46.11549913 29.71676361 47.05709267 40 48 C40 49.32 40 50.64 40 52 C39.01 51.505 39.01 51.505 38 51 C38.495 50.01 38.495 50.01 39 49 C37.9171875 49.99 37.9171875 49.99 36.8125 51 C34 53 34 53 31.5 52.9375 C28.72521051 52.74291577 28.72521051 52.74291577 26.3125 55.3125 C23.93582962 57.9638405 23.93582962 57.9638405 22 61 C22 59.68 22 58.36 22 57 C18.88214887 57.64644661 18.88214887 57.64644661 18 60 C16.0625 60.5625 16.0625 60.5625 14 61 C13.01 61.495 13.01 61.495 12 62 C5.39454207 58.95132711 0.9415333 54.71423762 -2.4375 48.25 C-3 46 -3 46 -2 43 C-1.87294728 40.15307832 -1.87294728 40.15307832 -2.50390625 38.08203125 C-3.03790012 35.84093887 -3.03132041 33.98406055 -2.9375 31.6875 C-2.89512185 26.47498704 -4.13491387 22.22545057 -6.0234375 17.3671875 C-8.09426901 11.97715088 -9.51444425 7.78749776 -9 2 C-8.67 2 -8.34 2 -8 2 C-7.81824219 2.63808594 -7.63648437 3.27617188 -7.44921875 3.93359375 C-7.19785156 4.75988281 -6.94648438 5.58617188 -6.6875 6.4375 C-6.44386719 7.26121094 -6.20023438 8.08492187 -5.94921875 8.93359375 C-5.47935547 9.95646484 -5.47935547 9.95646484 -5 11 C-4.01 11.33 -3.02 11.66 -2 12 C-2 13.98 -2 15.96 -2 18 C-0.73609288 16.96528543 -0.73609288 16.96528543 -0.9375 14.70703125 C-0.958125 13.75183594 -0.97875 12.79664062 -1 11.8125 C-1.0423452 7.74736054 -0.86314374 3.9920398 0 0 Z M13 54 C12.67 55.32 12.34 56.64 12 58 C12.99 57.67 13.98 57.34 15 57 C14.34 56.01 13.68 55.02 13 54 Z M22 55 C23 57 23 57 23 57 Z " fill="#D1978E" transform="translate(25,60)"/>
<path d="M0 0 C0.33 0 0.66 0 1 0 C1.29914992 8.59225061 0.73439427 16.79681718 -2 25 C-0.35 24.67 1.3 24.34 3 24 C3 24.99 3 25.98 3 27 C4.0725 26.484375 5.145 25.96875 6.25 25.4375 C9.25254899 23.99396683 10.83246499 23.94181906 14 25 C14.02730408 26.56240032 14.04653226 28.1249427 14.0625 29.6875 C14.07410156 30.55761719 14.08570313 31.42773438 14.09765625 32.32421875 C14.00043483 34.98808557 13.59364333 37.40573189 13 40 C12.29875 39.855625 11.5975 39.71125 10.875 39.5625 C5.13280185 38.43902645 -0.15220515 37.7793285 -6 38 C-6.33 39.32 -6.66 40.64 -7 42 C-7.08159574 37.83861737 -6.98248524 34.0527516 -6 30 C-6.99 30 -7.98 30 -9 30 C-9 28.35 -9 26.7 -9 25 C-10.32 25 -11.64 25 -13 25 C-13.33 27.31 -13.66 29.62 -14 32 C-14.33 32 -14.66 32 -15 32 C-15 29.69 -15 27.38 -15 25 C-16.32 25.33 -17.64 25.66 -19 26 C-16.74288577 23.56260508 -14.37526784 21.88001535 -11.5625 20.125 C-3.46989017 14.72118274 -1.95861638 9.30342779 0 0 Z " fill="#C88E8B" transform="translate(89,79)"/>
<path d="M0 0 C1.53831454 2.40222307 2.07331816 3.54762693 1.609375 6.41015625 C1.32578125 7.28542969 1.0421875 8.16070312 0.75 9.0625 C-2.47744729 19.92106711 -3.27365249 29.73463928 -3 41 C-2.01 37.04 -1.02 33.08 0 29 C0.33 29 0.66 29 1 29 C0.93941406 29.80107178 0.87882813 30.60214355 0.81640625 31.42749023 C0.54082362 35.09724391 0.27037375 38.76735902 0 42.4375 C-0.09539063 43.69755859 -0.19078125 44.95761719 -0.2890625 46.25585938 C-0.77173267 52.85809778 -1.11525087 59.38027835 -1 66 C-0.22928268 61.01948218 0.25056461 56.09802841 0.5625 51.0625 C0.60568359 50.37865234 0.64886719 49.69480469 0.69335938 48.99023438 C0.79803995 47.32697635 0.89937594 45.66350837 1 44 C1.66 44.33 2.32 44.66 3 45 C3.40045385 47.29890174 3.69406086 49.61671352 3.9375 51.9375 C4.89719002 60.12653003 5.97090204 67.34590103 11 74 C11 74.66 11 75.32 11 76 C19.68924582 76.31676843 19.68924582 76.31676843 28 74 C25.61622606 76.7601593 23.53334361 78.05777504 20 79 C18.00875244 78.80729862 16.01498384 78.60621675 14.04296875 78.26953125 C11.751222 77.89202908 11.751222 77.89202908 8.4375 78.3125 C3.67758943 77.87978086 1.07274604 75.56751023 -2 72 C-3.1577506 68.52674819 -3.06866652 65.63932552 -3 62 C-3.804375 61.690625 -4.60875 61.38125 -5.4375 61.0625 C-8 60 -8 60 -9 59 C-9.14115161 56.32941149 -9.04247107 53.67567762 -9 51 C-8.360625 51.804375 -7.72125 52.60875 -7.0625 53.4375 C-5.59396498 55.2750504 -5.59396498 55.2750504 -4 57 C-4.1071936 56.12819092 -4.1071936 56.12819092 -4.21655273 55.23876953 C-4.98381947 48.42919347 -5.11912783 41.72261099 -5.0625 34.875 C-5.05798828 33.823125 -5.05347656 32.77125 -5.04882812 31.6875 C-5.03718011 29.12493779 -5.02082553 26.56250123 -5 24 C-5.99 26.64 -6.98 29.28 -8 32 C-8.33 32 -8.66 32 -9 32 C-10.1250407 20.97460118 -4.62321669 9.76012412 0 0 Z M1 63 C0.91868537 64.43655854 0.86066441 65.8744483 0.8125 67.3125 C0.77769531 68.11300781 0.74289062 68.91351563 0.70703125 69.73828125 C0.83486341 72.04058332 0.83486341 72.04058332 2.19921875 73.79296875 C4.3309034 75.46398129 4.3309034 75.46398129 9 75 C7.35 71.04 5.7 67.08 4 63 C3.01 63 2.02 63 1 63 Z " fill="#B48286" transform="translate(9,48)"/>
<path d="M0 0 C4.28259653 0.49414575 5.41495388 2.24152797 8.25 5.375 C9.5606879 6.08515453 10.89133957 6.76159634 12.25 7.375 C11.10200257 18.27240844 11.10200257 18.27240844 8.125 22.125 C4.09841192 23.87569047 1.63965922 23.86273991 -2.75 23.375 C-5.25 21.875 -5.25 21.875 -6.75 20.375 C-7.41 20.705 -8.07 21.035 -8.75 21.375 C-9.41 18.735 -10.07 16.095 -10.75 13.375 C-9.7909375 12.9728125 -9.7909375 12.9728125 -8.8125 12.5625 C-6.41868314 11.48832248 -6.41868314 11.48832248 -5.75 8.375 C-5.09 8.375 -4.43 8.375 -3.75 8.375 C-3.75 7.715 -3.75 7.055 -3.75 6.375 C-3.09 6.375 -2.43 6.375 -1.75 6.375 C-1.75 5.055 -1.75 3.735 -1.75 2.375 C-2.41 2.045 -3.07 1.715 -3.75 1.375 C-2.75 0.375 -2.75 0.375 0 0 Z " fill="#AE1A44" transform="translate(35.75,70.625)"/>
<path d="M0 0 C0.33 0 0.66 0 1 0 C1.15855469 0.556875 1.31710938 1.11375 1.48046875 1.6875 C3.22799331 7.40316044 5.61208571 12.08551563 9 17 C9.33 16.34 9.66 15.68 10 15 C10.680625 15.598125 11.36125 16.19625 12.0625 16.8125 C15.31674834 19.23587643 18.23936225 20.5252401 22 22 C21.67 19.03 21.34 16.06 21 13 C21.66 13.33 22.32 13.66 23 14 C22.67 11.03 22.34 8.06 22 5 C28.875 10.75 28.875 10.75 30 13 C29.0625 15.625 29.0625 15.625 28 18 C28.598125 17.505 29.19625 17.01 29.8125 16.5 C32 15 32 15 35 15 C35 15.66 35 16.32 35 17 C34.37351563 17.33773437 33.74703125 17.67546875 33.1015625 18.0234375 C32.28429687 18.46945313 31.46703125 18.91546875 30.625 19.375 C29.81289063 19.81585938 29.00078125 20.25671875 28.1640625 20.7109375 C25.89185698 21.9443893 25.89185698 21.9443893 24 24 C21.66666667 24.33333333 19.33333333 24.66666667 17 25 C16.34 25.66 15.68 26.32 15 27 C12.5 27.3125 12.5 27.3125 10 27 C8 24 8 24 8 21 C6.741875 21.12375 5.48375 21.2475 4.1875 21.375 C3.47980469 21.44460937 2.77210937 21.51421875 2.04296875 21.5859375 C-0.29988142 21.92665391 -0.29988142 21.92665391 -3 24 C-3.24693223 16.13932402 -2.96687701 8.65215653 -1 1 C-0.67 0.67 -0.34 0.34 0 0 Z " fill="#FBECEB" transform="translate(32,49)"/>
<path d="M0 0 C2.97 0.33 5.94 0.66 9 1 C9 1.66 9 2.32 9 3 C9.680625 3.226875 10.36125 3.45375 11.0625 3.6875 C14.19163795 5.08562547 16.63923377 6.81090901 19.3515625 8.87890625 C21.12060315 10.19132292 21.12060315 10.19132292 24 11 C24.33 10.34 24.66 9.68 25 9 C26.32 11.31 27.64 13.62 29 16 C28.505 16.495 28.505 16.495 28 17 C25.66055264 16.71269945 23.3260857 16.38063221 21 16 C21 17.65 21 19.3 21 21 C20.34 20.34 19.68 19.68 19 19 C16.41645782 18.83312552 16.41645782 18.83312552 14 19 C13.67 18.01 13.34 17.02 13 16 C9.36632439 13.23840654 5.34961164 13.85501295 1 14 C0.67 15.32 0.34 16.64 0 18 C0 17.34 0 16.68 0 16 C-0.78375 16.495 -1.5675 16.99 -2.375 17.5 C-5 19 -5 19 -7 19 C-6.814375 18.05125 -6.62875 17.1025 -6.4375 16.125 C-5.71313368 13.10131207 -5.71313368 13.10131207 -7 11 C-6.01 11 -5.02 11 -4 11 C-3.34 9.68 -2.68 8.36 -2 7 C-0.5 8.375 -0.5 8.375 1 10 C1 10.66 1 11.32 1 12 C2.65 11.67 4.3 11.34 6 11 C4.35 9.35 2.7 7.7 1 6 C1.66 5.67 2.32 5.34 3 5 C2.505 4.54625 2.01 4.0925 1.5 3.625 C0 2 0 2 0 0 Z " fill="#CC8F88" transform="translate(67,48)"/>
<path d="M0 0 C3.45116902 1.4844314 5.68859241 3.44333067 8.328125 6.09765625 C9.12734375 6.89880859 9.9265625 7.69996094 10.75 8.52539062 C11.9875 9.78125977 11.9875 9.78125977 13.25 11.0625 C14.09046875 11.90361328 14.9309375 12.74472656 15.796875 13.61132812 C22 19.85976816 22 19.85976816 22 21 C13.42 21 4.84 21 -4 21 C-3.01 17.04 -2.02 13.08 -1 9 C-0.60807147 6.00709119 -0.2506696 3.00803522 0 0 Z " fill="#EFBEB7" transform="translate(104,107)"/>
<path d="M0 0 C1.32 0.33 2.64 0.66 4 1 C4.33 4.63 4.66 8.26 5 12 C5.66 11.34 6.32 10.68 7 10 C9.68839385 9.73008094 12.29141936 9.91262643 15 10 C14.67 10.66 14.34 11.32 14 12 C12.02 12 10.04 12 8 12 C8.33 13.65 8.66 15.3 9 17 C8.34 17 7.68 17 7 17 C7 17.66 7 18.32 7 19 C5.04072937 20.7143618 3.04119788 22.38405168 1 24 C1.15597656 24.61746094 1.31195313 25.23492187 1.47265625 25.87109375 C2.81301927 31.70300437 3.56899158 37.12893474 2 43 C1.34 43.66 0.68 44.32 0 45 C-2.18007728 39.51087685 -3.18143438 35.00562853 -2.98828125 29.109375 C-3.01152549 24.92541101 -4.52490173 21.22219936 -6.0234375 17.3671875 C-8.09426901 11.97715088 -9.51444425 7.78749776 -9 2 C-8.67 2 -8.34 2 -8 2 C-7.81824219 2.63808594 -7.63648437 3.27617188 -7.44921875 3.93359375 C-7.19785156 4.75988281 -6.94648438 5.58617188 -6.6875 6.4375 C-6.44386719 7.26121094 -6.20023438 8.08492187 -5.94921875 8.93359375 C-5.47935547 9.95646484 -5.47935547 9.95646484 -5 11 C-4.01 11.33 -3.02 11.66 -2 12 C-2 13.98 -2 15.96 -2 18 C-0.73609288 16.96528543 -0.73609288 16.96528543 -0.9375 14.70703125 C-0.958125 13.75183594 -0.97875 12.79664062 -1 11.8125 C-1.0423452 7.74736054 -0.86314374 3.9920398 0 0 Z " fill="#C88D88" transform="translate(25,60)"/>
<path d="M0 0 C0.99 2.31 1.98 4.62 3 7 C3.99 6.34 4.98 5.68 6 5 C8.5625 5.375 8.5625 5.375 11 6 C11.66 6 12.32 6 13 6 C13.33 4.02 13.66 2.04 14 0 C14.99 0.33 15.98 0.66 17 1 C16.75239109 5.20935149 16.41897739 7.47627827 13.75 10.8125 C9.79403771 13.95928818 7.60240453 15.0858431 2.5 14.8125 C-2.49901443 13.65201451 -5.14210112 12.28684833 -8 8 C-7.9375 5.5 -7.9375 5.5 -7 3 C-2.96551724 0 -2.96551724 0 0 0 Z " fill="#F4E4E6" transform="translate(65,69)"/>
<path d="M0 0 C1.9375 1.125 1.9375 1.125 2.9375 4.125 C2.2775 6.105 1.6175 8.085 0.9375 10.125 C-5.0025 10.125 -10.9425 10.125 -17.0625 10.125 C-17.0625 3.01388889 -17.0625 3.01388889 -15.0625 -0.875 C-10.71148391 -3.05050804 -4.50757671 -1.28787906 0 0 Z " fill="#EDBDB5" transform="translate(98.0625,117.875)"/>
<path d="M0 0 C0.33 0 0.66 0 1 0 C1.02703381 1.93742341 1.04641125 3.87495479 1.0625 5.8125 C1.07410156 6.89144531 1.08570312 7.97039062 1.09765625 9.08203125 C1 12 1 12 0 15 C-0.03954234 17.33299825 -0.04401732 19.66708189 0 22 C2.97068161 17.6147081 4.45941767 13.01508715 6 8 C6.33 8 6.66 8 7 8 C6.125 15.625 6.125 15.625 5 19 C7.97 16.525 7.97 16.525 11 14 C11.33 14.99 11.66 15.98 12 17 C12.66 17.33 13.32 17.66 14 18 C13.40832031 18.24234375 12.81664063 18.4846875 12.20703125 18.734375 C7.60052754 20.68819387 3.75748808 22.6061398 0 26 C0 25.34 0 24.68 0 24 C-0.66 24 -1.32 24 -2 24 C-1.37738281 24.62261719 -0.75476563 25.24523437 -0.11328125 25.88671875 C7.2578125 33.2578125 14.62890625 40.62890625 22 48 C19 48 19 48 16.94702148 46.27172852 C16.17946533 45.48209717 15.41190918 44.69246582 14.62109375 43.87890625 C13.78255859 43.02619141 12.94402344 42.17347656 12.08007812 41.29492188 C11.20802734 40.39322266 10.33597656 39.49152344 9.4375 38.5625 C7.7091449 36.79090423 5.97877666 35.0212695 4.24609375 33.25390625 C3.47966553 32.46314697 2.7132373 31.6723877 1.92358398 30.85766602 C0.13056294 28.94042981 0.13056294 28.94042981 -2 28 C-1.938125 29.258125 -1.87625 30.51625 -1.8125 31.8125 C-1.8035788 37.42393321 -2.96451205 42.77122362 -5 48 C-5.99 48.495 -5.99 48.495 -7 49 C-6.70703125 46.98177083 -6.4140625 44.96354167 -6.12109375 42.9453125 C-5.8315703 40.91859333 -5.8315703 40.91859333 -7 39 C-6.34 39 -5.68 39 -5 39 C-4.83081732 37.41693353 -4.66476064 35.83353281 -4.5 34.25 C-4.4071875 33.36828125 -4.314375 32.4865625 -4.21875 31.578125 C-3.94363687 28.76695165 -3.94363687 28.76695165 -4 25 C-4.556875 25.144375 -5.11375 25.28875 -5.6875 25.4375 C-8.11384195 26.02769128 -10.54906345 26.523429 -13 27 C-12.67 26.34 -12.34 25.68 -12 25 C-11.34 25 -10.68 25 -10 25 C-9.731875 24.38125 -9.46375 23.7625 -9.1875 23.125 C-8 21 -8 21 -5 19 C-4.67 19.99 -4.34 20.98 -4 22 C-3.855625 21.41476563 -3.71125 20.82953125 -3.5625 20.2265625 C-3.06800787 18.26919784 -2.53687363 16.3211669 -2 14.375 C-0.80166425 9.63531381 -0.37876751 4.86417218 0 0 Z " fill="#B37C7F" transform="translate(106,79)"/>
<path d="M0 0 C0.60457031 0.19980469 1.20914063 0.39960937 1.83203125 0.60546875 C1.85933533 2.16786907 1.87856351 3.73041145 1.89453125 5.29296875 C1.90613281 6.16308594 1.91773437 7.03320312 1.9296875 7.9296875 C1.83246608 10.59355432 1.42567458 13.01120064 0.83203125 15.60546875 C0.20296875 15.40050781 -0.42609375 15.19554688 -1.07421875 14.984375 C-6.47078694 13.2857564 -11.53456489 12.12708022 -17.16796875 11.60546875 C-17.16796875 10.28546875 -17.16796875 8.96546875 -17.16796875 7.60546875 C-16.29785156 7.24195312 -16.29785156 7.24195312 -15.41015625 6.87109375 C-11.65831723 5.26139384 -8.15094023 3.72433202 -4.85546875 1.29296875 C-2.16796875 -0.39453125 -2.16796875 -0.39453125 0 0 Z " fill="#EDBCB4" transform="translate(101.16796875,103.39453125)"/>
<path d="M0 0 C6.11485027 -0.09706112 11.93303301 0.22959149 18 1 C18 2.32 18 3.64 18 5 C17.34 4.67 16.68 4.34 16 4 C16.33 3.34 16.66 2.68 17 2 C16.278125 2.66 15.55625 3.32 14.8125 4 C12 6 12 6 9.5 5.9375 C6.72521051 5.74291577 6.72521051 5.74291577 4.3125 8.3125 C1.93582962 10.9638405 1.93582962 10.9638405 0 14 C0 12.68 0 11.36 0 10 C-3.11785113 10.64644661 -3.11785113 10.64644661 -4 13 C-5.9375 13.5625 -5.9375 13.5625 -8 14 C-8.99 14.495 -8.99 14.495 -10 15 C-15 12.54385965 -15 12.54385965 -17 11 C-17.33 10.01 -17.66 9.02 -18 8 C-17.32453125 8.19078125 -16.6490625 8.3815625 -15.953125 8.578125 C-13.2728876 9.24431117 -10.75646625 9.80063294 -8 10 C-5.45354496 8.29039594 -5.45354496 8.29039594 -4 6 C-3.34 6 -2.68 6 -2 6 C-0.36323743 4.0399719 -0.36323743 4.0399719 1 2 C0.67 1.34 0.34 0.68 0 0 Z M0 8 C1 10 1 10 1 10 Z " fill="#B8797C" transform="translate(47,107)"/>
<path d="M0 0 C1.32 0.33 2.64 0.66 4 1 C4 5.95 4 10.9 4 16 C-0.62 16 -5.24 16 -10 16 C-9.34 13.69 -8.68 11.38 -8 9 C-7.34 9 -6.68 9 -6 9 C-5.938125 8.443125 -5.87625 7.88625 -5.8125 7.3125 C-4.6282632 3.94197988 -2.74125393 2.2312532 0 0 Z " fill="#CFA29F" transform="translate(54,112)"/>
<path d="M0 0 C0.66 0 1.32 0 2 0 C2 6.27 2 12.54 2 19 C1.34 18.67 0.68 18.34 0 18 C-1.47811413 18.48509537 -2.934917 19.03652754 -4.375 19.625 C-6.83203125 20.4921875 -6.83203125 20.4921875 -9 21 C-11.0625 19.75 -11.0625 19.75 -13 18 C-15.67371637 17.42372327 -18.26523729 17.22789689 -21 17 C-21 16.67 -21 16.34 -21 16 C-20.35933594 15.99742188 -19.71867187 15.99484375 -19.05859375 15.9921875 C-13.28251472 15.73394254 -9.60624818 14.90343942 -5.40234375 10.828125 C-3.06533343 7.78154887 -2.11621768 4.65871352 -1 1 C-0.67 0.67 -0.34 0.34 0 0 Z " fill="#FAE0D4" transform="translate(86,69)"/>
<path d="M0 0 C-0.66 5.94 -1.32 11.88 -2 18 C-4.97 18 -7.94 18 -11 18 C-10.88623383 15.87436897 -10.75864369 13.7494739 -10.625 11.625 C-10.55539063 10.44164063 -10.48578125 9.25828125 -10.4140625 8.0390625 C-10 5 -10 5 -8 3 C-3.5 0 -3.5 0 0 0 Z " fill="#FDECFD" transform="translate(83,110)"/>
<path d="M0 0 C0.66 0 1.32 0 2 0 C7.62335649 8.25930485 7.21135598 18.39418823 5.45703125 27.9609375 C4.19442848 32.16031244 2.67635136 35.40492845 -1 38 C-3.75 38.75 -3.75 38.75 -6 39 C-5.71125 37.989375 -5.4225 36.97875 -5.125 35.9375 C-3.47203675 29.40829516 -2.81697901 22.67489232 -2 16 C-1.67 16 -1.34 16 -1 16 C-0.97294271 17.77074917 -0.95357805 19.54161711 -0.9375 21.3125 C-0.92589844 22.29863281 -0.91429688 23.28476563 -0.90234375 24.30078125 C-1 27 -1 27 -2 30 C1.27773504 29.24849977 1.27773504 29.24849977 3 26 C3.86001921 18.76243573 2.84421544 12.17551255 0.65625 5.27734375 C0 3 0 3 0 0 Z " fill="#CF9C96" transform="translate(122,58)"/>
<path d="M0 0 C0.66 0 1.32 0 2 0 C3.42662219 2.85324437 3.31033868 4.83454549 3 8 C1.20006226 10.69990662 -0.083773 12.5418865 -3 14 C-6.375 14.375 -6.375 14.375 -10 14 C-12.5 11.8125 -12.5 11.8125 -14 9 C-13.75 6.1875 -13.75 6.1875 -13 4 C-12.01 3.67 -11.02 3.34 -10 3 C-8.68 4.32 -7.36 5.64 -6 7 C-5.67 6.34 -5.34 5.68 -5 5 C-3.68 5 -2.36 5 -1 5 C-0.67 3.35 -0.34 1.7 0 0 Z " fill="#F8DCD0" transform="translate(43,78)"/>
<path d="M0 0 C0.99 0.495 0.99 0.495 2 1 C2.4140625 3.06640625 2.4140625 3.06640625 2.625 5.5625 C2.69976562 6.38878906 2.77453125 7.21507812 2.8515625 8.06640625 C2.92503906 9.02353516 2.92503906 9.02353516 3 10 C3.66 10 4.32 10 5 10 C6.22409501 15.69263601 7.23429776 21.27745162 7.65625 27.08984375 C7.92700153 29.32227867 7.92700153 29.32227867 10 32 C10.1953125 35.13671875 10.1953125 35.13671875 10.125 38.6875 C10.10695313 39.86699219 10.08890625 41.04648438 10.0703125 42.26171875 C10.03550781 43.61716797 10.03550781 43.61716797 10 45 C10.66 45 11.32 45 12 45 C10.52307692 51.52307692 10.52307692 51.52307692 7.875 53.9375 C6.946875 54.4634375 6.946875 54.4634375 6 55 C5.875 47.375 5.875 47.375 7 44 C7.0685495 42.10529184 7.08480372 40.2083166 7.0625 38.3125 C7.05347656 37.31863281 7.04445313 36.32476562 7.03515625 35.30078125 C7.02355469 34.54152344 7.01195313 33.78226563 7 33 C6.67 33 6.34 33 6 33 C5.90203125 32.07960937 5.8040625 31.15921875 5.703125 30.2109375 C4.74725447 22.11899901 3.26609775 14.71425822 0.8046875 6.92578125 C0 4 0 4 0 0 Z " fill="#D8A095" transform="translate(99,47)"/>
<path d="M0 0 C1.32 1.32 2.64 2.64 4 4 C4.33 3.01 4.66 2.02 5 1 C5.33 4.96 5.66 8.92 6 13 C5.01 13.495 5.01 13.495 4 14 C3.34 13.34 2.68 12.68 2 12 C1.13375 12.928125 1.13375 12.928125 0.25 13.875 C-1.80249821 15.81347053 -3.43366582 16.90014249 -6 18 C-6 17.01 -6 16.02 -6 15 C-7.98 15.66 -9.96 16.32 -12 17 C-11.5 14.75 -11.5 14.75 -10 12 C-8.12109375 11.0234375 -8.12109375 11.0234375 -5.9375 10.125 C-3.77692832 9.25096247 -3.77692832 9.25096247 -2 8 C-0.9384058 4.41136476 -0.9384058 4.41136476 -1 1 C-0.67 0.67 -0.34 0.34 0 0 Z " fill="#D99D92" transform="translate(98,88)"/>
<path d="M0 0 C1.80640628 2.70960943 2.77355116 4.91079141 3.875 7.9375 C5.35882366 11.75862483 6.70268152 14.40924976 10 17 C9.67 17.66 9.34 18.32 9 19 C7.68 17.68 6.36 16.36 5 15 C5.33 18.3 5.66 21.6 6 25 C5.34 24.67 4.68 24.34 4 24 C4 26.31 4 28.62 4 31 C-0.51707932 30.4685789 -3.38687577 28.70984317 -7 26 C-7.33 25.34 -7.66 24.68 -8 24 C-7.443125 24.391875 -6.88625 24.78375 -6.3125 25.1875 C-3.93682865 26.30575051 -3.93682865 26.30575051 -1.37890625 24.96484375 C1.30899272 23.17947115 1.30899272 23.17947115 1.5234375 19.9609375 C1.47445312 18.77757813 1.42546875 17.59421875 1.375 16.375 C1.33117188 15.13234375 1.28734375 13.8896875 1.2421875 12.609375 C0.95810181 8.37558175 0.57980052 4.20355377 0 0 Z " fill="#C98F8A" transform="translate(50,40)"/>
<path d="M0 0 C6.875 5.75 6.875 5.75 8 8 C7.0625 10.625 7.0625 10.625 6 13 C6.598125 12.505 7.19625 12.01 7.8125 11.5 C10 10 10 10 13 10 C13 10.66 13 11.32 13 12 C12.06027344 12.50660156 12.06027344 12.50660156 11.1015625 13.0234375 C9.87566406 13.69246094 9.87566406 13.69246094 8.625 14.375 C7.81289063 14.81585938 7.00078125 15.25671875 6.1640625 15.7109375 C3.89185698 16.9443893 3.89185698 16.9443893 2 19 C0.68 19 -0.64 19 -2 19 C-2 18.34 -2 17.68 -2 17 C-1.34 17 -0.68 17 0 17 C-0.33 14.03 -0.66 11.06 -1 8 C-0.34 8.33 0.32 8.66 1 9 C0.67 6.03 0.34 3.06 0 0 Z " fill="#E7D6D9" transform="translate(54,54)"/>
<path d="M0 0 C9.8877551 -0.58163265 9.8877551 -0.58163265 14 3 C14 3.99 14 4.98 14 6 C12.02 6.33 10.04 6.66 8 7 C7.67 8.65 7.34 10.3 7 12 C6.01 12 5.02 12 4 12 C4 10.35 4 8.7 4 7 C1.69 7.33 -0.62 7.66 -3 8 C-3.33 7.34 -3.66 6.68 -4 6 C-2.35 5.67 -0.7 5.34 1 5 C0.67 3.35 0.34 1.7 0 0 Z " fill="#791B40" transform="translate(67,61)"/>
<path d="M0 0 C1.79623856 0.39649413 3.58698435 0.81793452 5.375 1.25 C6.37273438 1.48203125 7.37046875 1.7140625 8.3984375 1.953125 C11 3 11 3 12.3515625 5.109375 C12.56554688 5.73328125 12.77953125 6.3571875 13 7 C8.69027374 11.09949571 6.14689273 12.63118644 0 13 C0 8.66666667 0 4.33333333 0 0 Z " fill="#CF8982" transform="translate(36,103)"/>
<path d="M0 0 C1.125 1.6875 1.125 1.6875 2 4 C1.28237632 6.94225707 0.33450736 8.62832516 -1.6875 10.875 C-5.16285027 12.56571094 -7.34743417 12.06256461 -11 11 C-13.34885769 8.12075508 -14 6.72527067 -14 3 C-12.98679688 3.05220703 -12.98679688 3.05220703 -11.953125 3.10546875 C-10.61507812 3.14607422 -10.61507812 3.14607422 -9.25 3.1875 C-8.36828125 3.22230469 -7.4865625 3.25710937 -6.578125 3.29296875 C-3.55328417 2.94923684 -2.24416398 1.99772541 0 0 Z " fill="#FDE9E5" transform="translate(45,90)"/>
<path d="M0 0 C3.74020498 1.68152073 5.56134348 3.69039473 8 7 C6.68 7 5.36 7 4 7 C3.855625 8.010625 3.71125 9.02125 3.5625 10.0625 C3.04166667 13.70833333 2.52083333 17.35416667 2 21 C0.02 21 -1.96 21 -4 21 C-3.79503906 20.23816406 -3.59007813 19.47632812 -3.37890625 18.69140625 C-1.74722695 12.43793676 -0.53672183 6.44066194 0 0 Z " fill="#EBB9AF" transform="translate(104,107)"/>
<path d="M0 0 C3.22216123 2.71496918 4.89470407 6.23836058 6.75 9.9375 C7.07871094 10.55818359 7.40742187 11.17886719 7.74609375 11.81835938 C10.0702249 16.4224926 10.0702249 16.4224926 9.703125 19.44140625 C9.35507813 20.21291016 9.35507813 20.21291016 9 21 C8.34 19.35 7.68 17.7 7 16 C6.67 17.32 6.34 18.64 6 20 C5.34 20 4.68 20 4 20 C3.89042969 19.38511719 3.78085938 18.77023438 3.66796875 18.13671875 C3.43013672 16.92435547 3.43013672 16.92435547 3.1875 15.6875 C2.96126953 14.48673828 2.96126953 14.48673828 2.73046875 13.26171875 C1.91569731 10.73897724 0.89230976 9.78974554 -1 8 C-1.31241431 4.87585686 -1.00058075 3.00174224 0 0 Z " fill="#D7A69A" transform="translate(98,37)"/>
<path d="M0 0 C0.66 5.94 1.32 11.88 2 18 C0.02 18 -1.96 18 -4 18 C-4.0809723 15.56183415 -4.14046972 13.12635616 -4.1875 10.6875 C-4.21263672 9.99720703 -4.23777344 9.30691406 -4.26367188 8.59570312 C-4.33807332 3.46200317 -4.33807332 3.46200317 -2.55078125 1.01953125 C-1 0 -1 0 0 0 Z " fill="#E8DDE3" transform="translate(62,110)"/>
<path d="M0 0 C0.66 0 1.32 0 2 0 C2 3.96 2 7.92 2 12 C1.67 12 1.34 12 1 12 C0.93941406 12.92941406 0.87882813 13.85882813 0.81640625 14.81640625 C-0.13639479 28.87388622 -0.13639479 28.87388622 -1 33 C-1.99 33.495 -1.99 33.495 -3 34 C-3.13845014 26.59240454 -2.7270429 19.31345483 -2.0625 11.9375 C-1.97548828 10.89400391 -1.88847656 9.85050781 -1.79882812 8.77539062 C-1.71181641 7.78603516 -1.62480469 6.79667969 -1.53515625 5.77734375 C-1.456604 4.88265381 -1.37805176 3.98796387 -1.29711914 3.06616211 C-1 1 -1 1 0 0 Z " fill="#DCAC9F" transform="translate(10,81)"/>
<path d="M0 0 C0.33 1.98 0.66 3.96 1 6 C0.34 6 -0.32 6 -1 6 C-1 6.66 -1 7.32 -1 8 C-3.64 7.67 -6.28 7.34 -9 7 C-9 7.66 -9 8.32 -9 9 C-8.01 9.33 -7.02 9.66 -6 10 C-6.66 10.66 -7.32 11.32 -8 12 C-8.495 11.525625 -8.99 11.05125 -9.5 10.5625 C-12.99468651 8.37832093 -15.90966936 8.34086089 -20 8 C-20 7.67 -20 7.34 -20 7 C-19.35933594 6.99742188 -18.71867187 6.99484375 -18.05859375 6.9921875 C-11.94889953 6.7190268 -8.73289176 5.72599262 -4.47265625 1.27734375 C-3 0 -3 0 0 0 Z " fill="#F8D6C6" transform="translate(85,78)"/>
<path d="M0 0 C0.66 0.33 1.32 0.66 2 1 C2.40243753 3.25663119 2.69501353 5.53312715 2.9375 7.8125 C3.73352918 14.71335838 5.12900428 21.30183531 7 28 C3.88009102 25.21466571 3.46183818 23.15654359 3 19 C1.68 19 0.36 19 -1 19 C-1.10655578 12.55929529 -0.96205088 6.37358711 0 0 Z " fill="#B4797D" transform="translate(10,92)"/>
<path d="M0 0 C0 1.65 0 3.3 0 5 C0.99 4.67 1.98 4.34 3 4 C3.73323796 1.98491642 3.73323796 1.98491642 4 0 C4.99 0 5.98 0 7 0 C7.33 2.31 7.66 4.62 8 7 C7.01 7.66 6.02 8.32 5 9 C5 8.34 5 7.68 5 7 C1.28400809 6.79913557 0.22791555 6.8480563 -3 9 C-6 4.375 -6 4.375 -6 1 C-3 0 -3 0 0 0 Z " fill="#AD6E72" transform="translate(71,68)"/>
<path d="M0 0 C0.33 0 0.66 0 1 0 C1.23668569 7.03482474 0.7879537 13.1834265 -1 20 C-3.31 20.33 -5.62 20.66 -8 21 C-8 18 -8 18 -5.6875 15.5625 C-1.7906577 11.21176414 -1.10957927 5.57495928 0 0 Z " fill="#AC686E" transform="translate(89,79)"/>
<path d="M0 0 C0.5775 0.495 1.155 0.99 1.75 1.5 C4.10400629 3.36980013 4.10400629 3.36980013 8 3 C8.33 2.34 8.66 1.68 9 1 C9.66 2.32 10.32 3.64 11 5 C19.68924582 5.31676843 19.68924582 5.31676843 28 3 C25.61622606 5.7601593 23.53334361 7.05777504 20 8 C18.01019626 7.80743835 16.01796768 7.60689303 14.046875 7.2734375 C11.74309146 6.8961313 11.74309146 6.8961313 8.375 7.25 C3.73754039 6.90648447 2.27717605 5.19724493 -1 2 C-0.67 1.34 -0.34 0.68 0 0 Z " fill="#B28187" transform="translate(9,119)"/>
<path d="M0 0 C0.66 0.33 1.32 0.66 2 1 C1.01 2.485 1.01 2.485 0 4 C0.66 4.33 1.32 4.66 2 5 C1.2575 5.53625 0.515 6.0725 -0.25 6.625 C-3.17674961 9.15264739 -4.98621339 11.71827368 -7 15 C-7.66 14.67 -8.32 14.34 -9 14 C-9.99 14.33 -10.98 14.66 -12 15 C-10.87548273 12.0280615 -9.77706209 9.66559313 -8 7 C-7.34 7 -6.68 7 -6 7 C-5.67 6.01 -5.34 5.02 -5 4 C-3.37667033 2.61423077 -1.71275535 1.27358732 0 0 Z " fill="#D3A49D" transform="translate(31,13)"/>
<path d="M0 0 C2 1.375 2 1.375 4 3 C4 3.66 4 4.32 4 5 C5.65 5 7.3 5 9 5 C9 5.33 9 5.66 9 6 C7.35 6.33 5.7 6.66 4 7 C3.67 8.32 3.34 9.64 3 11 C3 10.34 3 9.68 3 9 C2.21625 9.495 1.4325 9.99 0.625 10.5 C-2 12 -2 12 -4 12 C-3.814375 11.05125 -3.62875 10.1025 -3.4375 9.125 C-2.71313368 6.10131207 -2.71313368 6.10131207 -4 4 C-3.01 4 -2.02 4 -1 4 C-0.67 2.68 -0.34 1.36 0 0 Z " fill="#AA6B72" transform="translate(64,55)"/>
<path d="M0 0 C1.76244705 3.37665088 3.21497885 6.83757851 4.625 10.375 C5.07101563 11.47585937 5.51703125 12.57671875 5.9765625 13.7109375 C7.00383467 17.01232365 7.19698725 19.5682748 7 23 C3.3332705 19.60288296 0.90475806 15.60777573 -1 11 C-0.8125 7.75 -0.8125 7.75 0 5 C0.03622333 3.33372702 0.04899842 1.66594626 0 0 Z " fill="#C18A89" transform="translate(35,45)"/>
<path d="M0 0 C5.32530867 2.81928106 9.75367483 6.39404736 12.375 11.875 C12.58125 12.57625 12.7875 13.2775 13 14 C10 14 10 14 8.5625 12.625 C8.046875 12.08875 7.53125 11.5525 7 11 C6.34 10.731875 5.68 10.46375 5 10.1875 C2.03362433 8.42621444 1.27744297 6.12973527 0 3 C0 2.01 0 1.02 0 0 Z " fill="#B98688" transform="translate(106,26)"/>
<path d="M0 0 C1.32 0.33 2.64 0.66 4 1 C4.33 4.63 4.66 8.26 5 12 C5.66 11.34 6.32 10.68 7 10 C9.68839385 9.73008094 12.29141936 9.91262643 15 10 C14.67 10.66 14.34 11.32 14 12 C12.02 12 10.04 12 8 12 C8 12.99 8 13.98 8 15 C7.34 14.67 6.68 14.34 6 14 C5.34 15.32 4.68 16.64 4 18 C3.01 14.04 2.02 10.08 1 6 C0.67 6 0.34 6 0 6 C0 4.02 0 2.04 0 0 Z " fill="#B07D84" transform="translate(25,60)"/>
<path d="M0 0 C0.99 0.33 1.98 0.66 3 1 C2.75218511 5.2128532 2.32623116 7.55259727 -0.1875 11 C-3 13 -3 13 -6.3125 12.8125 C-7.199375 12.544375 -8.08625 12.27625 -9 12 C-9 11.01 -9 10.02 -9 9 C-7.329375 8.7215625 -7.329375 8.7215625 -5.625 8.4375 C-4.42875 7.963125 -3.2325 7.48875 -2 7 C-0.45913678 3.48599332 -0.45913678 3.48599332 0 0 Z " fill="#E0C8C9" transform="translate(79,69)"/>
<path d="M0 0 C0.33 0 0.66 0 1 0 C1.13277344 0.62648438 1.26554687 1.25296875 1.40234375 1.8984375 C1.57894531 2.71570313 1.75554688 3.53296875 1.9375 4.375 C2.11152344 5.18710938 2.28554688 5.99921875 2.46484375 6.8359375 C2.92330693 9.029463 2.92330693 9.029463 4 11 C4.33 10.34 4.66 9.68 5 9 C5.99 9.33 6.98 9.66 8 10 C8 10.66 8 11.32 8 12 C7.34 12 6.68 12 6 12 C6 12.66 6 13.32 6 14 C4.35 14.66 2.7 15.32 1 16 C-1.54677703 11.22479306 -1.42040613 6.27951886 -1 1 C-0.67 0.67 -0.34 0.34 0 0 Z " fill="#E3C6C3" transform="translate(26,65)"/>
<path d="M0 0 C1.61820824 2.49818279 2.0369503 3.68952735 1.6796875 6.69140625 C1.41414062 7.63886719 1.14859375 8.58632813 0.875 9.5625 C0.62492188 10.51253906 0.37484375 11.46257813 0.1171875 12.44140625 C-1.14108851 15.32312228 -2.35626519 16.37097668 -5 18 C-6.39214652 13.82356045 -4.70664266 11.16562207 -3.0625 7.3125 C-2.77181641 6.61060547 -2.48113281 5.90871094 -2.18164062 5.18554688 C-1.46289687 3.45349225 -0.73254669 1.72626219 0 0 Z " fill="#C59491" transform="translate(9,48)"/>
<path d="M0 0 C0 2.64 0 5.28 0 8 C-2.64 8.99 -5.28 9.98 -8 11 C-8.375 8.875 -8.375 8.875 -8 6 C-3.44730679 0 -3.44730679 0 0 0 Z " fill="#EDBDB5" transform="translate(56,112)"/>
<path d="M0 0 C1.32 1.32 2.64 2.64 4 4 C4.33 3.01 4.66 2.02 5 1 C5.33 4.96 5.66 8.92 6 13 C5.01 13.495 5.01 13.495 4 14 C3.34 13.34 2.68 12.68 2 12 C2.33 11.34 2.66 10.68 3 10 C2.34 10 1.68 10 1 10 C-1.29404844 6.55892734 -1.26293056 5.03160191 -1 1 C-0.67 0.67 -0.34 0.34 0 0 Z " fill="#D8A49A" transform="translate(98,88)"/>
<path d="M0 0 C0.33 0 0.66 0 1 0 C1.99 3.63 2.98 7.26 4 11 C2.02 11.99 2.02 11.99 0 13 C-0.33 13.66 -0.66 14.32 -1 15 C-1.66 15 -2.32 15 -3 15 C-2.69257097 12.68682039 -2.37892298 10.37446648 -2.0625 8.0625 C-1.88847656 6.77472656 -1.71445312 5.48695312 -1.53515625 4.16015625 C-1 1 -1 1 0 0 Z " fill="#F7D9CD" transform="translate(32,49)"/>
<path d="M0 0 C0.99 0.33 1.98 0.66 3 1 C3 1.99 3 2.98 3 4 C3.99 4.33 4.98 4.66 6 5 C5.01 5.33 4.02 5.66 3 6 C3 7.32 3 8.64 3 10 C4.7634375 9.938125 4.7634375 9.938125 6.5625 9.875 C10.72409674 9.86016365 14.06487667 10.68829222 18 12 C14.76549898 13.01548288 12.22692818 12.96773311 8.875 12.5625 C5.44523255 12.14565931 5.44523255 12.14565931 2 12 C1.67 13.32 1.34 14.64 1 16 C1.01160156 15.18015625 1.02320312 14.3603125 1.03515625 13.515625 C1.04869141 11.89914063 1.04869141 11.89914063 1.0625 10.25 C1.07410156 9.18265625 1.08570312 8.1153125 1.09765625 7.015625 C1.01510087 4.46631499 0.74617558 2.42066409 0 0 Z " fill="#D0A29E" transform="translate(81,105)"/>
<path d="M0 0 C3.11253688 0.30076199 3.9816021 0.9793493 6.10546875 3.36328125 C7.13607422 4.82314453 7.13607422 4.82314453 8.1875 6.3125 C9.22970703 7.76076172 9.22970703 7.76076172 10.29296875 9.23828125 C11.76621139 11.62176533 12.56563682 13.27064327 13 16 C11.33333333 14.33333333 9.66666667 12.66666667 8 11 C6.8553125 9.9171875 6.8553125 9.9171875 5.6875 8.8125 C4 7 4 7 4 5 C2.68 4.34 1.36 3.68 0 3 C0 2.01 0 1.02 0 0 Z " fill="#D49C92" transform="translate(65,16)"/>
<path d="M0 0 C1.03060547 0.25136719 1.03060547 0.25136719 2.08203125 0.5078125 C2.98308594 0.71148437 3.88414063 0.91515625 4.8125 1.125 C6.15248047 1.43824219 6.15248047 1.43824219 7.51953125 1.7578125 C10.25246634 2.28880522 10.25246634 2.28880522 13 0 C13.66 0.33 14.32 0.66 15 1 C14.67 2.32 14.34 3.64 14 5 C13.38125 5.144375 12.7625 5.28875 12.125 5.4375 C9.96741678 5.93152225 9.96741678 5.93152225 8 7 C3 4.54385965 3 4.54385965 1 3 C0.67 2.01 0.34 1.02 0 0 Z " fill="#A9737A" transform="translate(29,115)"/>
<path d="M0 0 C0.66 0 1.32 0 2 0 C6 4.47058824 6 4.47058824 6 7 C3 9 3 9 0 9 C-2 6 -2 6 -1.6875 3.375 C-1 1 -1 1 0 0 Z " fill="#F8E9E9" transform="translate(31,81)"/>
<path d="M0 0 C1.80640628 2.70960943 2.77355116 4.91079141 3.875 7.9375 C5.35882366 11.75862483 6.70268152 14.40924976 10 17 C9.67 17.66 9.34 18.32 9 19 C7.68 17.68 6.36 16.36 5 15 C4.01 16.485 4.01 16.485 3 18 C0.73150334 14.34827367 0.6104049 10.9872882 0.375 6.75 C0.30023438 5.48671875 0.22546875 4.2234375 0.1484375 2.921875 C0.09945312 1.95765625 0.05046875 0.9934375 0 0 Z " fill="#BF8685" transform="translate(50,40)"/>
<path d="M0 0 C1.546875 0.185625 1.546875 0.185625 3.125 0.375 C5 2.875 5 2.875 6.125 5.375 C1.175 6.86 1.175 6.86 -3.875 8.375 C-3.875 7.715 -3.875 7.055 -3.875 6.375 C-3.215 6.375 -2.555 6.375 -1.875 6.375 C-1.875 5.055 -1.875 3.735 -1.875 2.375 C-2.535 2.045 -3.195 1.715 -3.875 1.375 C-2.875 0.375 -2.875 0.375 0 0 Z " fill="#6B2243" transform="translate(35.875,70.625)"/>
<path d="M0 0 C0.515625 0.66 1.03125 1.32 1.5625 2 C3.93893577 4.32369446 3.93893577 4.32369446 7.5625 4.375 C11.11785744 4.25451357 11.11785744 4.25451357 14 2 C14.99 2.33 15.98 2.66 17 3 C14.1007869 5.8992131 12.01010684 7.30809006 7.9375 7.4375 C4.11484902 7.012761 2.66044076 6.66044076 0 4 C-0.99 4.495 -0.99 4.495 -2 5 C-1.125 1.125 -1.125 1.125 0 0 Z " fill="#A93855" transform="translate(29,87)"/>
<path d="M0 0 C1.32 0 2.64 0 4 0 C4 1.65 4 3.3 4 5 C4.99 5.33 5.98 5.66 7 6 C3.04 7.98 3.04 7.98 -1 10 C-2.27351308 7.45297384 -1.80191925 6.5717055 -1.0625 3.875 C-0.86785156 3.15054688 -0.67320313 2.42609375 -0.47265625 1.6796875 C-0.31667969 1.12539062 -0.16070312 0.57109375 0 0 Z " fill="#E7DBE2" transform="translate(76,104)"/>
<path d="M0 0 C0.66 0 1.32 0 2 0 C2 2.64 2 5.28 2 8 C1.67 7.01 1.34 6.02 1 5 C-0.32 5 -1.64 5 -3 5 C-3.33 5.99 -3.66 6.98 -4 8 C-5.65 6.35 -7.3 4.7 -9 3 C-8.34 2.34 -7.68 1.68 -7 1 C-6.01 1 -5.02 1 -4 1 C-3.67 1.66 -3.34 2.32 -3 3 C-2.34 3 -1.68 3 -1 3 C-0.67 2.01 -0.34 1.02 0 0 Z " fill="#A86A71" transform="translate(41,78)"/>
<path d="M0 0 C1.19196962 3.57590885 0.76618616 4.10605975 -0.8125 7.375 C-1.18503906 8.16519531 -1.55757813 8.95539063 -1.94140625 9.76953125 C-2.29074219 10.50558594 -2.64007813 11.24164063 -3 12 C-3.67834587 13.66194738 -4.35199575 15.32598903 -5 17 C-5.33 17 -5.66 17 -6 17 C-6.31365567 11.04054222 -5.85002662 7.27782708 -3 2 C-2.01 1.34 -1.02 0.68 0 0 Z " fill="#AF7D83" transform="translate(6,63)"/>
<path d="M0 0 C0.33 0 0.66 0 1 0 C1.33 6.27 1.66 12.54 2 19 C1.34 18.67 0.68 18.34 0 18 C-0.99 23.445 -0.99 23.445 -2 29 C-2.33 29 -2.66 29 -3 29 C-3.18792413 23.83208655 -2.74738781 19.52355278 -1.51171875 14.51953125 C-0.54053882 9.73776746 -0.31263088 4.86223284 0 0 Z " fill="#C38C88" transform="translate(32,32)"/>
<path d="M0 0 C0.33 0.99 0.66 1.98 1 3 C-0.41488448 5.76239351 -1.80363095 7.80363095 -4 10 C-4.12375 9.030625 -4.2475 8.06125 -4.375 7.0625 C-4.58125 6.051875 -4.7875 5.04125 -5 4 C-5.66 3.67 -6.32 3.34 -7 3 C-7 4.65 -7 6.3 -7 8 C-7.33 8 -7.66 8 -8 8 C-8 5.69 -8 3.38 -8 1 C-5.36 0.67 -2.72 0.34 0 0 Z " fill="#A9254B" transform="translate(86,66)"/>
<path d="M0 0 C3 2 3 2 3.58203125 4.05859375 C3.65808594 4.84363281 3.73414063 5.62867188 3.8125 6.4375 C3.90144531 7.21996094 3.99039063 8.00242187 4.08203125 8.80859375 C4 11 4 11 2 14 C2 13.34 2 12.68 2 12 C1.34 12 0.68 12 0 12 C-0.33 12.66 -0.66 13.32 -1 14 C-1 12.02 -1 10.04 -1 8 C-0.01 8.495 -0.01 8.495 1 9 C0.67 6.03 0.34 3.06 0 0 Z " fill="#F7D9CC" transform="translate(54,54)"/>
<path d="M0 0 C0.99 0.495 0.99 0.495 2 1 C2 1.66 2 2.32 2 3 C3.32 3.66 4.64 4.32 6 5 C5.67 6.32 5.34 7.64 5 9 C6.65 9.33 8.3 9.66 10 10 C9.67 10.99 9.34 11.98 9 13 C6.14059964 12.3645777 4.44177401 11.65348679 2.77734375 9.19140625 C1.10621088 5.92700692 0 3.71683985 0 0 Z " fill="#D8A196" transform="translate(22,103)"/>
<path d="M0 0 C0.99 0.495 0.99 0.495 2 1 C2.4140625 3.06640625 2.4140625 3.06640625 2.625 5.5625 C2.69976562 6.38878906 2.77453125 7.21507812 2.8515625 8.06640625 C2.92503906 9.02353516 2.92503906 9.02353516 3 10 C3.66 10 4.32 10 5 10 C6.04976964 13.14930893 6.10131595 15.38814456 6.0625 18.6875 C6.05347656 19.68136719 6.04445313 20.67523438 6.03515625 21.69921875 C6.02355469 22.45847656 6.01195313 23.21773437 6 24 C5.67 24 5.34 24 5 24 C4.35025795 21.31339217 3.70511582 18.62581326 3.0625 15.9375 C2.88009766 15.18533203 2.69769531 14.43316406 2.50976562 13.65820312 C1.42833845 9.11620899 0.58447189 4.63270877 0 0 Z " fill="#C68C88" transform="translate(99,47)"/>
<path d="M0 0 C-0.33 2.31 -0.66 4.62 -1 7 C-2.65 7 -4.3 7 -6 7 C-6.33 5.35 -6.66 3.7 -7 2 C-4 0 -4 0 0 0 Z " fill="#FEEDFD" transform="translate(71,121)"/>
<path d="M0 0 C0.66 0 1.32 0 2 0 C3.42041821 2.84083641 3.31452272 4.85477278 3 8 C1 10.375 1 10.375 -1 12 C-2.32 11.34 -3.64 10.68 -5 10 C-2 8 -2 8 0 8 C0 5.36 0 2.72 0 0 Z " fill="#DBC2C5" transform="translate(43,78)"/>
<path d="M0 0 C0 2.31 0 4.62 0 7 C-2.97 7 -5.94 7 -9 7 C-2.18421053 0 -2.18421053 0 0 0 Z " fill="#EEBDB5" transform="translate(56,121)"/>
<path d="M0 0 C1.8871875 0.0309375 1.8871875 0.0309375 3.8125 0.0625 C3.67154936 1.6879308 3.52457913 3.31284051 3.375 4.9375 C3.29378906 5.84242187 3.21257813 6.74734375 3.12890625 7.6796875 C2.8125 10.0625 2.8125 10.0625 1.8125 12.0625 C1.1525 11.7325 0.4925 11.4025 -0.1875 11.0625 C0.1425 10.4025 0.4725 9.7425 0.8125 9.0625 C0.8814472 7.68907169 0.89717708 6.31247898 0.875 4.9375 C0.854375 3.65875 0.83375 2.38 0.8125 1.0625 C-0.5075 1.0625 -1.8275 1.0625 -3.1875 1.0625 C-3.5175 2.3825 -3.8475 3.7025 -4.1875 5.0625 C-5.1775 4.7325 -6.1675 4.4025 -7.1875 4.0625 C-7.1875 3.0725 -7.1875 2.0825 -7.1875 1.0625 C-4.43671116 0.14557039 -2.82801087 -0.04636083 0 0 Z " fill="#A9143E" transform="translate(44.1875,76.9375)"/>
<path d="M0 0 C2.97 0.33 5.94 0.66 9 1 C8.67 2.98 8.34 4.96 8 7 C5.0280615 5.87548273 2.66559313 4.77706209 0 3 C0 2.01 0 1.02 0 0 Z " fill="#F0D1C7" transform="translate(31,93)"/>
<path d="M0 0 C4.95 0 9.9 0 15 0 C14.01 0.33 13.02 0.66 12 1 C11.67 2.65 11.34 4.3 11 6 C10.01 6 9.02 6 8 6 C8 4.35 8 2.7 8 1 C5.69 1.33 3.38 1.66 1 2 C0.67 1.34 0.34 0.68 0 0 Z " fill="#7B2E4A" transform="translate(63,67)"/>
<path d="M0 0 C0.99 0.33 1.98 0.66 3 1 C3.33 2.98 3.66 4.96 4 7 C2.02 7 0.04 7 -2 7 C-2.125 4.625 -2.125 4.625 -2 2 C-1.34 1.34 -0.68 0.68 0 0 Z " fill="#FEEDFD" transform="translate(60,121)"/>
<path d="M0 0 C0.66 0 1.32 0 2 0 C2.14285714 8.57142857 2.14285714 8.57142857 1 12 C-0.32 11.67 -1.64 11.34 -3 11 C-2.01 7.37 -1.02 3.74 0 0 Z " fill="#E4B3A6" transform="translate(103,116)"/>
<path d="M0 0 C0.36368892 1.60203467 0.71561952 3.20674203 1.0625 4.8125 C1.25972656 5.70582031 1.45695312 6.59914063 1.66015625 7.51953125 C2 10 2 10 1 13 C0.34 12.34 -0.32 11.68 -1 11 C-0.625 7.875 -0.625 7.875 0 5 C-0.639375 4.87625 -1.27875 4.7525 -1.9375 4.625 C-2.618125 4.41875 -3.29875 4.2125 -4 4 C-4.33 3.34 -4.66 2.68 -5 2 C-2 0 -2 0 0 0 Z " fill="#DDA598" transform="translate(23,67)"/>
<path d="M0 0 C0.33 0 0.66 0 1 0 C0.88501733 2.20887757 0.75756495 4.41710787 0.625 6.625 C0.55539063 7.85476562 0.48578125 9.08453125 0.4140625 10.3515625 C0.0185513 13.83653855 -0.76261849 16.73049601 -2 20 C-4.14915785 16.77626323 -4.38286803 15.73296326 -4 12 C-3.34 11.34 -2.68 10.68 -2 10 C-1.32059533 7.57284794 -1.32059533 7.57284794 -0.875 4.875 C-0.70742187 3.96492188 -0.53984375 3.05484375 -0.3671875 2.1171875 C-0.24601563 1.41851562 -0.12484375 0.71984375 0 0 Z " fill="#CE9790" transform="translate(9,77)"/>
<path d="M0 0 C2.475 0.99 2.475 0.99 5 2 C1.79663178 4.83374881 -0.78087253 5.5205537 -5 6 C-5 5.01 -5 4.02 -5 3 C-4.34 3 -3.68 3 -3 3 C-1.37485532 1.54166642 -1.37485532 1.54166642 0 0 Z " fill="#DCA195" transform="translate(32,119)"/>
<path d="M0 0 C0.66 0 1.32 0 2 0 C2.37125 0.825 2.7425 1.65 3.125 2.5 C4.6864317 5.18027158 4.6864317 5.18027158 6.97265625 5.33203125 C8.98473875 5.31428802 10.99456487 5.16437993 13 5 C10.02591724 6.98272184 8.52324572 7.82813436 5 8 C2.6875 6.0625 2.6875 6.0625 1 4 C0.34 4.99 -0.32 5.98 -1 7 C-0.67 4.69 -0.34 2.38 0 0 Z " fill="#AA747B" transform="translate(40,0)"/>
<path d="M0 0 C2.74277578 3.19990508 4.6302836 6.00499382 6 10 C1.125 9.125 1.125 9.125 0 8 C-0.14115161 5.32941149 -0.04247107 2.67567762 0 0 Z " fill="#C18D8C" transform="translate(0,99)"/>
<path d="M0 0 C1.98 0.66 3.96 1.32 6 2 C4.68 2.33 3.36 2.66 2 3 C1.34 2.01 0.68 1.02 0 0 Z M0 4 C2 5 2 5 3.125 8.0625 C3.41375 9.031875 3.7025 10.00125 4 11 C3.34 11 2.68 11 2 11 C2 11.66 2 12.32 2 13 C1.34 13 0.68 13 0 13 C0 10 0 7 0 4 Z " fill="#B97B7C" transform="translate(36,103)"/>
<path d="M0 0 C0.66 0.33 1.32 0.66 2 1 C1.88610125 2.79240663 1.75852313 4.58394835 1.625 6.375 C1.55539063 7.37273437 1.48578125 8.37046875 1.4140625 9.3984375 C1 12 1 12 -1 14 C-2.25664978 11.09399739 -3 9.20395416 -3 6 C-2.34 6 -1.68 6 -1 6 C-0.67 4.02 -0.34 2.04 0 0 Z " fill="#B77577" transform="translate(26,91)"/>
<path d="M0 0 C0.33 0.99 0.66 1.98 1 3 C-2.83314543 8.63697858 -2.83314543 8.63697858 -6.8125 9.875 C-7.8953125 9.936875 -7.8953125 9.936875 -9 10 C-8.34 7.36 -7.68 4.72 -7 2 C-6.67 2 -6.34 2 -6 2 C-6 3.65 -6 5.3 -6 7 C-2.57421051 3.82460444 -2.57421051 3.82460444 0 0 Z " fill="#C18786" transform="translate(125,87)"/>
<path d="M0 0 C0.5775 0.495 1.155 0.99 1.75 1.5 C4.10400629 3.36980013 4.10400629 3.36980013 8 3 C8.33 2.34 8.66 1.68 9 1 C9.66 2.32 10.32 3.64 11 5 C5.71502591 6.14507772 5.71502591 6.14507772 3 6 C0.5 3.5625 0.5 3.5625 -1 1 C-0.67 0.67 -0.34 0.34 0 0 Z " fill="#A67179" transform="translate(9,119)"/>
<path d="M0 0 C0.66 0 1.32 0 2 0 C2 0.66 2 1.32 2 2 C2.99 2.33 3.98 2.66 5 3 C3.68 4.32 2.36 5.64 1 7 C0.01 6.67 -0.98 6.34 -2 6 C-1.34 4.02 -0.68 2.04 0 0 Z M7 0 C7.66 0.33 8.32 0.66 9 1 C8.01 1.66 7.02 2.32 6 3 C5.67 2.34 5.34 1.68 5 1 C5.66 0.67 6.32 0.34 7 0 Z " fill="#CB9998" transform="translate(46,121)"/>
<path d="M0 0 C0.66 0.33 1.32 0.66 2 1 C0.68 1.33 -0.64 1.66 -2 2 C-1.34 4.64 -0.68 7.28 0 10 C-0.99 10.33 -1.98 10.66 -3 11 C-3.144375 10.2575 -3.28875 9.515 -3.4375 8.75 C-3.90187492 6.47972261 -4.41863569 4.24240521 -5 2 C-2.625 0.9375 -2.625 0.9375 0 0 Z " fill="#D0948E" transform="translate(42,105)"/>
<path d="M0 0 C0.99 0.495 0.99 0.495 2 1 C2 1.66 2 2.32 2 3 C2.66 3 3.32 3 4 3 C4 5.97 4 8.94 4 12 C3.34 12 2.68 12 2 12 C0.86235649 7.73383684 0 4.43513689 0 0 Z " fill="#D9A498" transform="translate(19,84)"/>
<path d="M0 0 C1.57554035 2.88628401 2.46276373 5.53342384 3.125 8.75 C3.29257812 9.54921875 3.46015625 10.3484375 3.6328125 11.171875 C3.81457031 12.07679687 3.81457031 12.07679687 4 13 C2.68 13 1.36 13 0 13 C-0.79953138 9.71303767 -1.09658936 8.28976808 0 5 C0.03874921 3.33378384 0.0450286 1.66605828 0 0 Z " fill="#D19991" transform="translate(35,45)"/>
<path d="M0 0 C2.97 0.33 5.94 0.66 9 1 C9 1.66 9 2.32 9 3 C9.66 3.33 10.32 3.66 11 4 C7.65649854 5.11450049 6.33342063 4.91669067 3 4 C2.01 3.34 1.02 2.68 0 2 C0 1.34 0 0.68 0 0 Z " fill="#DDA69A" transform="translate(67,48)"/>
<path d="M0 0 C3.81684226 1.55500981 6.19195732 4.03595495 9 7 C7.02 7 5.04 7 3 7 C2.01 4.69 1.02 2.38 0 0 Z " fill="#FAD8C8" transform="translate(65,53)"/>
<path d="M0 0 C2.60027868 3.12033442 4.29575022 6.45817615 6.03515625 10.09765625 C7.07461977 12.24013571 7.07461977 12.24013571 9 15 C8.01 15.33 7.02 15.66 6 16 C4.99303432 13.89915791 3.9946411 11.79420511 3 9.6875 C2.443125 8.51574219 1.88625 7.34398437 1.3125 6.13671875 C0 3 0 3 0 0 Z " fill="#B88080" transform="translate(57,37)"/>
<path d="M0 0 C0.25 2.3125 0.25 2.3125 0 5 C-2 6.8125 -2 6.8125 -4 8 C-4.66 7.34 -5.32 6.68 -6 6 C-2.61538462 0 -2.61538462 0 0 0 Z " fill="#FCE2D5" transform="translate(44,92)"/>
<path d="M0 0 C0.33 0 0.66 0 1 0 C1 3.63 1 7.26 1 11 C0.34 11 -0.32 11 -1 11 C-1.12375 11.639375 -1.2475 12.27875 -1.375 12.9375 C-1.58125 13.618125 -1.7875 14.29875 -2 15 C-2.99 15.495 -2.99 15.495 -4 16 C-2.66666667 10.66666667 -1.33333333 5.33333333 0 0 Z " fill="#C48E8B" transform="translate(89,79)"/>
<path d="M0 0 C0.66 0 1.32 0 2 0 C2.66 0.66 3.32 1.32 4 2 C4.99 2.33 5.98 2.66 7 3 C5.68 5.31 4.36 7.62 3 10 C2.01 9.34 1.02 8.68 0 8 C0.66 7.34 1.32 6.68 2 6 C1.34 4.02 0.68 2.04 0 0 Z " fill="#D79E94" transform="translate(60,50)"/>
<path d="M0 0 C0.66 1.32 1.32 2.64 2 4 C0.7260411 6.03833424 -0.61061923 8.03852126 -2 10 C-2.66 10 -3.32 10 -4 10 C-3.52449439 8.51965236 -3.04448784 7.04074979 -2.5625 5.5625 C-2.29566406 4.73878906 -2.02882813 3.91507812 -1.75390625 3.06640625 C-1 1 -1 1 0 0 Z " fill="#D3928A" transform="translate(98,94)"/>
<path d="M0 0 C0.33 0.66 0.66 1.32 1 2 C1.99 2.33 2.98 2.66 4 3 C1.42786866 4.61949011 0.32330841 5.04408751 -2.75 4.625 C-3.4925 4.41875 -4.235 4.2125 -5 4 C-5 3.01 -5 2.02 -5 1 C-3.35 0.67 -1.7 0.34 0 0 Z " fill="#CFA9A8" transform="translate(75,77)"/>
<path d="M0 0 C0.66 0 1.32 0 2 0 C3.625 2 3.625 2 5 4 C3.75 5.5 3.75 5.5 2 7 C0.68 7 -0.64 7 -2 7 C-2 6.34 -2 5.68 -2 5 C-1.34 5 -0.68 5 0 5 C0 3.35 0 1.7 0 0 Z " fill="#EFDCDC" transform="translate(54,66)"/>
<path d="M0 0 C0.33 0 0.66 0 1 0 C1.06058594 0.66386719 1.12117188 1.32773438 1.18359375 2.01171875 C1.6886381 8.57625764 1.6886381 8.57625764 3 15 C3.66 15.33 4.32 15.66 5 16 C3.35 15.67 1.7 15.34 0 15 C0 10.05 0 5.1 0 0 Z " fill="#B37578" transform="translate(24,66)"/>
<path d="M0 0 C0.66 0 1.32 0 2 0 C2.474375 1.11375 2.94875 2.2275 3.4375 3.375 C4.25306463 5.26710994 5.07856355 7.15712709 6 9 C3.525 8.01 3.525 8.01 1 7 C1 6.34 1 5.68 1 5 C0.34 5 -0.32 5 -1 5 C-0.67 3.35 -0.34 1.7 0 0 Z " fill="#F9EFF3" transform="translate(63,69)"/>
<path d="M0 0 C0.66 0 1.32 0 2 0 C2.69965443 1.26418246 3.38434763 2.53665402 4.0625 3.8125 C4.63677734 4.87404297 4.63677734 4.87404297 5.22265625 5.95703125 C6 8 6 8 5 11 C1.87729874 8.48169253 1.05476902 7.2738451 0.25 3.25 C0.1675 2.1775 0.085 1.105 0 0 Z " fill="#D4A196" transform="translate(122,58)"/>
<path d="M0 0 C0.66 0.33 1.32 0.66 2 1 C1.01 2.485 1.01 2.485 0 4 C0.66 4.33 1.32 4.66 2 5 C-0.475 6.485 -0.475 6.485 -3 8 C-3 7.34 -3 6.68 -3 6 C-3.99 6.33 -4.98 6.66 -6 7 C-4.77065985 3.31197956 -3.06140622 2.27643027 0 0 Z " fill="#C99A97" transform="translate(31,13)"/>
<path d="M0 0 C0.33 0 0.66 0 1 0 C1 2.64 1 5.28 1 8 C0.01 8.33 -0.98 8.66 -2 9 C-2.33 6.69 -2.66 4.38 -3 2 C-2.01 2.495 -2.01 2.495 -1 3 C-0.67 2.01 -0.34 1.02 0 0 Z " fill="#BC8F92" transform="translate(9,111)"/>
<path d="M0 0 C0.66 1.32 1.32 2.64 2 4 C-3.2734375 7.22265625 -3.2734375 7.22265625 -5 8 C-5.66 7.67 -6.32 7.34 -7 7 C-6.01 6.67 -5.02 6.34 -4 6 C-2.90833725 4.06669397 -2.90833725 4.06669397 -2 2 C-1.34 1.34 -0.68 0.68 0 0 Z " fill="#AE6E72" transform="translate(100,98)"/>
<path d="M0 0 C3.63 0 7.26 0 11 0 C11 0.66 11 1.32 11 2 C11.99 2.33 12.98 2.66 14 3 C13.34 3.66 12.68 4.32 12 5 C11.505 4.525625 11.01 4.05125 10.5 3.5625 C7.00531349 1.37832093 4.09033064 1.34086089 0 1 C0 0.67 0 0.34 0 0 Z " fill="#EAD1CF" transform="translate(65,85)"/>
<path d="M0 0 C1.67542976 0.28604898 3.34385343 0.61781233 5 1 C4.67 1.99 4.34 2.98 4 4 C2.02 4.33 0.04 4.66 -2 5 C-1.125 1.125 -1.125 1.125 0 0 Z " fill="#F8DCD0" transform="translate(71,74)"/>
<path d="M0 0 C-1.65 1.32 -3.3 2.64 -5 4 C-6.65 2.68 -8.3 1.36 -10 0 C-6.33694766 -0.74926071 -3.57644848 -1.2380014 0 0 Z " fill="#DEA699" transform="translate(52,63)"/>
<path d="M0 0 C1.75 0.0625 1.75 0.0625 4 1 C5.72518887 3.25123006 6.76906007 5.40134903 8 8 C7.67 8.66 7.34 9.32 7 10 C5.82739389 8.71372289 4.6620717 7.42080217 3.5 6.125 C2.8503125 5.40570312 2.200625 4.68640625 1.53125 3.9453125 C0 2 0 2 0 0 Z " fill="#B57477" transform="translate(70,22)"/>
<path d="M0 0 C1.65 0 3.3 0 5 0 C2.375 4.875 2.375 4.875 -1 6 C-0.67 4.02 -0.34 2.04 0 0 Z " fill="#DBA094" transform="translate(112,92)"/>
<path d="M0 0 C0 1.32 0 2.64 0 4 C-2.31 4.33 -4.62 4.66 -7 5 C-6 2 -6 2 -4.0625 0.8125 C-2 0 -2 0 0 0 Z " fill="#FBEBEE" transform="translate(72,116)"/>
<path d="M0 0 C0.99 0.33 1.98 0.66 3 1 C0.9375 3.0625 0.9375 3.0625 -2 5 C-5.8125 4.75 -5.8125 4.75 -9 4 C-9 3.67 -9 3.34 -9 3 C-8.43410156 2.86722656 -7.86820313 2.73445313 -7.28515625 2.59765625 C-6.18494141 2.33275391 -6.18494141 2.33275391 -5.0625 2.0625 C-4.33160156 1.88847656 -3.60070313 1.71445313 -2.84765625 1.53515625 C-1.00030102 1.16112431 -1.00030102 1.16112431 0 0 Z " fill="#B05368" transform="translate(43,89)"/>
<path d="M0 0 C1.8125 0.8125 1.8125 0.8125 3.8125 2.8125 C-2.5875 5.02788462 -2.5875 5.02788462 -5.625 3.9375 C-6.140625 3.56625 -6.65625 3.195 -7.1875 2.8125 C-2.79278993 -0.23938199 -2.79278993 -0.23938199 0 0 Z " fill="#AF536C" transform="translate(51.1875,73.1875)"/>
<path d="M0 0 C4 5 4 5 4.171875 7.23828125 C3.5859375 10.11914062 3.5859375 10.11914062 3 13 C2.67 13 2.34 13 2 13 C1.34 8.71 0.68 4.42 0 0 Z " fill="#995F6B" transform="translate(124,64)"/>
<path d="M0 0 C1.98 0 3.96 0 6 0 C6 1.32 6 2.64 6 4 C4.35 4 2.7 4 1 4 C0.67 2.68 0.34 1.36 0 0 Z " fill="#EECEC5" transform="translate(80,63)"/>
<path d="M0 0 C4 0 4 0 6 1 C7.04808041 2.97522846 8.0520411 4.97481509 9 7 C6.62051228 6.82374165 5.29774151 6.30280227 3.62109375 4.59765625 C2.37884514 3.09350908 1.18623944 1.54870149 0 0 Z " fill="#CD9B96" transform="translate(68,54)"/>
<path d="M0 0 C0.66 0.33 1.32 0.66 2 1 C-0.46153846 4.81538462 -0.46153846 4.81538462 -3.1875 5.75 C-3.785625 5.8325 -4.38375 5.915 -5 6 C-4.1875 3.5625 -4.1875 3.5625 -3 1 C-2.01 0.67 -1.02 0.34 0 0 Z " fill="#DDA699" transform="translate(91,99)"/>
<path d="M0 0 C1.65 0 3.3 0 5 0 C4.67 0.99 4.34 1.98 4 3 C0.4375 4.1875 0.4375 4.1875 -3 5 C-3 4.34 -3 3.68 -3 3 C-2.34 3 -1.68 3 -1 3 C-0.67 2.01 -0.34 1.02 0 0 Z " fill="#78324D" transform="translate(35,74)"/>
<path d="M0 0 C0.66 0.33 1.32 0.66 2 1 C0.07423885 3.43929746 -1.80090595 5.80090595 -4 8 C-4.33 7.01 -4.66 6.02 -5 5 C-5.66 4.67 -6.32 4.34 -7 4 C-1.7265625 0.77734375 -1.7265625 0.77734375 0 0 Z " fill="#C9938E" transform="translate(40,12)"/>
<path d="M0 0 C0.33 0 0.66 0 1 0 C1 2.64 1 5.28 1 8 C0.01 7.67 -0.98 7.34 -2 7 C-2.125 4.625 -2.125 4.625 -2 2 C-1.34 1.34 -0.68 0.68 0 0 Z " fill="#FCEAE8" transform="translate(86,69)"/>
<path d="M0 0 C3.32901247 2.21934164 3.75023244 3.34683329 5 7 C2 7 2 7 0.25 5.75 C-1 4 -1 4 -0.6875 1.8125 C-0.460625 1.214375 -0.23375 0.61625 0 0 Z " fill="#C89A97" transform="translate(114,33)"/>
<path d="M0 0 C0.33 1.32 0.66 2.64 1 4 C1.99 4 2.98 4 4 4 C3.67 4.99 3.34 5.98 3 7 C2.67 6.34 2.34 5.68 2 5 C1.071875 5.309375 1.071875 5.309375 0.125 5.625 C-0.57625 5.74875 -1.2775 5.8725 -2 6 C-2.66 5.34 -3.32 4.68 -4 4 C-3.01 3.67 -2.02 3.34 -1 3 C-0.67 2.01 -0.34 1.02 0 0 Z " fill="#B58084" transform="translate(104,98)"/>
<path d="M0 0 C1.231394 3.69418201 0.64432764 6.2056261 0 10 C-2 8 -2 8 -2.25 5 C-2 2 -2 2 0 0 Z " fill="#DBA194" transform="translate(26,88)"/>
<path d="M0 0 C-0.99 0 -1.98 0 -3 0 C-3.33 1.32 -3.66 2.64 -4 4 C-4.99 3.67 -5.98 3.34 -7 3 C-7 2.01 -7 1.02 -7 0 C-3.86650268 -1.04449911 -3.01031744 -0.93423645 0 0 Z " fill="#7E2E4A" transform="translate(44,78)"/>
<path d="M0 0 C0 0.99 0 1.98 0 3 C-1.98 3.33 -3.96 3.66 -6 4 C-6 3.01 -6 2.02 -6 1 C-3 0 -3 0 0 0 Z " fill="#9F5E6A" transform="translate(71,68)"/>
<path d="M0 0 C2.64 1.65 5.28 3.3 8 5 C5 6 5 6 1 6 C0.67 4.02 0.34 2.04 0 0 Z " fill="#F4E1DE" transform="translate(41,64)"/>
<path d="M0 0 C0.99 0.33 1.98 0.66 3 1 C2.01 2.485 2.01 2.485 1 4 C-1.97 3.505 -1.97 3.505 -5 3 C-2 1 -2 1 0 0 Z " fill="#BD7C7C" transform="translate(89,106)"/>
<path d="M0 0 C0.99 0.495 0.99 0.495 2 1 C2 1.99 2 2.98 2 4 C2.66 4.33 3.32 4.66 4 5 C2.68 5.99 1.36 6.98 0 8 C0 5.36 0 2.72 0 0 Z " fill="#D39088" transform="translate(105,94)"/>
</svg>
