<?xml version="1.0" encoding="UTF-8"?>
<svg version="1.1" xmlns="http://www.w3.org/2000/svg" width="128" height="128">
<path d="M0 0 C42.24 0 84.48 0 128 0 C128 42.24 128 84.48 128 128 C85.76 128 43.52 128 0 128 C0 85.76 0 43.52 0 0 Z " fill="#2D3F51" transform="translate(0,0)"/>
<path d="M0 0 C3.83938168 2.1610234 6.84303389 4.94932904 10 8 C11.45107091 9.32052474 12.90889127 10.63369113 14.375 11.9375 C14.98085937 12.50339844 15.58671875 13.06929687 16.2109375 13.65234375 C18.14763617 15.11121065 19.6304261 15.58767326 22 16 C21.8453125 14.081875 21.8453125 14.081875 21.6875 12.125 C21.62949219 11.40570313 21.57148437 10.68640625 21.51171875 9.9453125 C21.12606964 7.60480784 21.12606964 7.60480784 18 6 C17.75 3.4375 17.75 3.4375 18 1 C19 0 19 0 22.08984375 -0.1328125 C23.35957031 -0.13023438 24.62929687 -0.12765625 25.9375 -0.125 C27.20464844 -0.12757812 28.47179687 -0.13015625 29.77734375 -0.1328125 C33 0 33 0 35 1 C34.36662007 5.68701148 34.36662007 5.68701148 32.48461914 7.29370117 C30.31787911 9.7839735 30.59931598 11.72782087 30.55859375 14.98828125 C30.53216797 16.16970703 30.50574219 17.35113281 30.47851562 18.56835938 C30.45821289 20.42170898 30.45821289 20.42170898 30.4375 22.3125 C30.40289725 24.74622708 30.36019985 27.17985534 30.30859375 29.61328125 C30.29626709 30.69391846 30.28394043 31.77455566 30.27124023 32.88793945 C29.98347753 36.18956969 29.16586138 38.90816 28 42 C23.05645764 40.47675349 19.84788835 37.55726982 16.0625 34.1875 C14.86620423 33.13895907 13.66959249 32.09077851 12.47265625 31.04296875 C11.89402832 30.53556152 11.31540039 30.0281543 10.71923828 29.50537109 C10.15188965 29.00859863 9.58454102 28.51182617 9 28 C8.43651855 27.5045166 7.87303711 27.0090332 7.29248047 26.49853516 C4.54117199 23.83984168 4.54117199 23.83984168 1 23 C0.91878076 24.60332791 0.86070866 26.20784026 0.8125 27.8125 C0.77769531 28.70582031 0.74289063 29.59914063 0.70703125 30.51953125 C1.05923981 33.5015637 1.90353248 33.99157311 4 36 C4 37.32 4 38.64 4 40 C-0.49616307 41.75460022 -4.17365442 42.44688385 -9 42 C-11.4375 40.5 -11.4375 40.5 -13 39 C-12.42655063 36.13275314 -12.1385485 35.1385485 -10 33 C-9.51769234 29.249754 -9.62960417 25.46522433 -9.625 21.6875 C-9.60050781 20.64142578 -9.57601562 19.59535156 -9.55078125 18.51757812 C-9.5280943 12.57737871 -9.67909437 9.41483837 -14 5 C-14 3.68 -14 2.36 -14 1 C-9.67445702 -1.16277149 -4.66230533 -0.77705089 0 0 Z " fill="#F8F9F9" transform="translate(54,44)"/>
</svg>
