<?xml version="1.0" encoding="UTF-8"?>
<svg version="1.1" xmlns="http://www.w3.org/2000/svg" width="128" height="128">
<path d="M0 0 C42.24 0 84.48 0 128 0 C128 42.24 128 84.48 128 128 C85.76 128 43.52 128 0 128 C0 85.76 0 43.52 0 0 Z " fill="#EA554A" transform="translate(0,0)"/>
<path d="M0 0 C42.24 0 84.48 0 128 0 C128 14.85 128 29.7 128 45 C126.35 43.68 124.7 42.36 123 41 C121.515 40.505 121.515 40.505 120 40 C120 39.34 120 38.68 120 38 C119.2575 37.731875 118.515 37.46375 117.75 37.1875 C115 36 115 36 113.234375 34.5625 C101.94696424 26.66920576 83.61719332 27.65754909 70.625 29.5625 C55.16841622 33.53549513 43.33495566 43.59139383 34.3046875 56.41796875 C31.13961395 62.68178197 30.5593196 69.61193059 29.875 76.5 C29.78863281 77.32242188 29.70226562 78.14484375 29.61328125 78.9921875 C29.40376148 80.99426526 29.20114956 82.99706397 29 85 C22.11596905 83.83166197 18.72226662 79.89269652 14.4296875 74.68359375 C13.03180979 72.96392315 13.03180979 72.96392315 11.34765625 71.5 C10 70 10 70 9.5625 66.5625 C10.08017345 62.34715905 10.72606313 61.57199624 14 59 C17.1640625 58.05859375 17.1640625 58.05859375 20.625 57.4375 C24.02789742 56.87754634 24.02789742 56.87754634 27 56 C27.66 55.01 28.32 54.02 29 53 C22.07 53 15.14 53 8 53 C8 53.66 8 54.32 8 55 C5.36 55.33 2.72 55.66 0 56 C0 37.52 0 19.04 0 0 Z " fill="#1D3866" transform="translate(0,0)"/>
<path d="M0 0 C6.93 0 13.86 0 21 0 C20.34 1.32 19.68 2.64 19 4 C16.06640625 4.94140625 16.06640625 4.94140625 12.5625 5.5625 C8.081262 6.29819098 8.081262 6.29819098 4.1015625 8.296875 C2.64555556 10.5480063 2.69692662 12.02931229 2.8125 14.6875 C2.83957031 15.49574219 2.86664063 16.30398437 2.89453125 17.13671875 C2.92933594 17.75160156 2.96414063 18.36648437 3 19 C3.92039062 19.433125 3.92039062 19.433125 4.859375 19.875 C7.42865206 21.22527699 9.09466391 22.82247304 11 25 C11 25.66 11 26.32 11 27 C11.515625 27.226875 12.03125 27.45375 12.5625 27.6875 C15.33112365 29.17829735 17.72614776 30.96979954 20.21875 32.87890625 C22.13722103 34.08636499 23.78702676 34.56808198 26 35 C26 35.66 26 36.32 26 37 C26.66 37.0825 27.32 37.165 28 37.25 C31.93109287 38.23277322 35.63248564 39.71827298 39 42 C39.33 42.99 39.66 43.98 40 45 C40.81984375 45.12117188 41.6396875 45.24234375 42.484375 45.3671875 C43.56203125 45.53476563 44.6396875 45.70234375 45.75 45.875 C46.81734375 46.03742188 47.8846875 46.19984375 48.984375 46.3671875 C51.67708871 46.93223882 53.63572439 47.63422914 56 49 C56 49.66 56 50.32 56 51 C57.0828125 51.185625 57.0828125 51.185625 58.1875 51.375 C61 52 61 52 63.3125 52.9375 C66.10003921 54.03955039 68.89643366 54.7329162 71.8034668 55.44458008 C73.88847757 55.97180021 75.95106501 56.54657858 78.015625 57.1484375 C86.16088965 59.51622468 94.30374462 61.59165493 102.625 63.25 C103.44129883 63.41290527 104.25759766 63.57581055 105.09863281 63.74365234 C110.05125908 64.70061771 114.98849851 65.42660166 120 66 C120 68.97 120 71.94 120 75 C77.76 75 35.52 75 -8 75 C-8 51.24 -8 27.48 -8 3 C-5.29120665 1.64560332 -2.99066732 1.93498549 0 2 C0 1.34 0 0.68 0 0 Z " fill="#F58F31" transform="translate(8,53)"/>
<path d="M0 0 C8 5 8 5 9.9375 7 C12.00855387 9.00829466 13.85441173 10.12437113 16.375 11.5 C17.15746094 11.933125 17.93992187 12.36625 18.74609375 12.8125 C20.60224095 13.79043544 22.51459249 14.66091309 24.4375 15.5 C28.70285165 19.66131868 28.51863068 25.25676609 29 31 C29.66 31 30.32 31 31 31 C32.485 36.445 32.485 36.445 34 42 C34.66 42 35.32 42 36 42 C36 42.66 36 43.32 36 44 C36.66 44 37.32 44 38 44 C38 45.32 38 46.64 38 48 C38.66 48 39.32 48 40 48 C40 48.66 40 49.32 40 50 C26.8 50 13.6 50 0 50 C0 33.5 0 17 0 0 Z " fill="#1D3866" transform="translate(0,78)"/>
<path d="M0 0 C0.51949219 0.27714844 1.03898437 0.55429688 1.57421875 0.83984375 C5.36216005 2.80733267 8.70699113 4.46337389 13 5 C13 5.66 13 6.32 13 7 C13.53625 7.14695312 14.0725 7.29390625 14.625 7.4453125 C20.01687666 8.98838246 25.26298082 10.81098075 30.5 12.8125 C43.13338983 17.62025703 55.82536608 21.9326234 69 25 C71.75222427 25.67865925 74.50098799 26.3709606 77.25 27.0625 C78.54681824 27.38694572 79.84369186 27.71117016 81.140625 28.03515625 C85.09375 29.0234375 89.046875 30.01171875 93 31 C93 31.33 93 31.66 93 32 C66.6 32 40.2 32 13 32 C13 31.34 13 30.68 13 30 C12.34 30 11.68 30 11 30 C11 28.68 11 27.36 11 26 C10.34 26 9.68 26 9 26 C9 25.34 9 24.68 9 24 C8.34 24 7.68 24 7 24 C4.43383368 20.15075052 4.44902324 17.5650696 4 13 C3.34 13 2.68 13 2 13 C-0.24828052 8.50343896 -0.16682272 4.92127034 0 0 Z " fill="#E85449" transform="translate(27,96)"/>
<path d="M0 0 C7.04803821 2.64301433 9.87272422 6.17521137 14.078125 12.3203125 C20.369211 21.09202997 31.04421258 27.23892475 41 31 C41 31.33 41 31.66 41 32 C31.76 32 22.52 32 13 32 C13 31.34 13 30.68 13 30 C12.34 30 11.68 30 11 30 C11 28.68 11 27.36 11 26 C10.34 26 9.68 26 9 26 C9 25.34 9 24.68 9 24 C8.34 24 7.68 24 7 24 C4.43383368 20.15075052 4.44902324 17.5650696 4 13 C3.34 13 2.68 13 2 13 C-0.24828052 8.50343896 -0.16682272 4.92127034 0 0 Z " fill="#891B1E" transform="translate(27,96)"/>
<path d="M0 0 C0.33 0.99 0.66 1.98 1 3 C-0.65 3 -2.3 3 -4 3 C-4 3.66 -4 4.32 -4 5 C-4.99 5.495 -4.99 5.495 -6 6 C-4.68 6.33 -3.36 6.66 -2 7 C-2 7.66 -2 8.32 -2 9 C-0.35 8.67 1.3 8.34 3 8 C2.34 15.26 1.68 22.52 1 30 C-6.04541202 28.5909176 -9.16564282 25.02871993 -13.5703125 19.68359375 C-14.96819021 17.96392315 -14.96819021 17.96392315 -16.65234375 16.5 C-18 15 -18 15 -18.4375 11.5625 C-17.9193782 7.34350818 -17.27340343 6.57807264 -14 4 C-10.80078125 2.98828125 -10.80078125 2.98828125 -7.3125 2.3125 C-3.33915936 1.82936029 -3.33915936 1.82936029 0 0 Z " fill="#1E3863" transform="translate(28,55)"/>
<path d="M0 0 C9.92150989 -0.62552427 9.92150989 -0.62552427 14.125 1.8125 C17.10237361 5.28610255 17.3652846 8.54899666 17.265625 13.05859375 C17 15 17 15 15.5625 17.5 C11.8326877 19.68330476 8.22985401 19.66992163 4 19 C3.01 18.34 2.02 17.68 1 17 C1 19.97 1 22.94 1 26 C0.01 26 -0.98 26 -2 26 C-2.26197285 17.10747704 -1.6039348 8.75003718 0 0 Z " fill="#F6E5E1" transform="translate(107,65)"/>
<path d="M0 0 C1.87945312 0.08701172 1.87945312 0.08701172 3.796875 0.17578125 C5.06015625 0.22089844 6.3234375 0.26601563 7.625 0.3125 C8.58921875 0.37050781 9.5534375 0.42851563 10.546875 0.48828125 C10.65037317 6.905168 10.29195044 13.11522527 9.546875 19.48828125 C8.556875 19.48828125 7.566875 19.48828125 6.546875 19.48828125 C6.546875 18.82828125 6.546875 18.16828125 6.546875 17.48828125 C5.886875 17.81828125 5.226875 18.14828125 4.546875 18.48828125 C1.8745129 18.62243597 -0.77562988 18.53146666 -3.453125 18.48828125 C-3.453125 17.82828125 -3.453125 17.16828125 -3.453125 16.48828125 C-4.443125 16.15828125 -5.433125 15.82828125 -6.453125 15.48828125 C-8.02735253 12.33982619 -8.12240843 8.89610053 -7.453125 5.48828125 C-5.30390615 1.72580835 -4.35876804 0.61634164 0 0 Z " fill="#F5E7E5" transform="translate(57.453125,60.51171875)"/>
<path d="M0 0 C0.89506817 2.96986552 1.03315169 5.25639788 0.66015625 8.328125 C0.56669922 9.12734375 0.47324219 9.9265625 0.37695312 10.75 C0.22129883 11.9875 0.22129883 11.9875 0.0625 13.25 C-0.03740234 14.09046875 -0.13730469 14.9309375 -0.24023438 15.796875 C-0.48704258 17.86536277 -0.74266284 19.93279572 -1 22 C-5.3989401 21.2619228 -7.79132135 20.20867865 -11 17 C-11.8125 14.25 -11.8125 14.25 -12 12 C-9.625 10.9375 -9.625 10.9375 -7 10 C-6.34 10.33 -5.68 10.66 -5 11 C-5.103125 10.113125 -5.20625 9.22625 -5.3125 8.3125 C-4.90501428 3.99315142 -3.2277297 2.74357025 0 0 Z " fill="#1E3769" transform="translate(30,63)"/>
<path d="M0 0 C0.99 0 1.98 0 3 0 C4.359375 1.5390625 4.359375 1.5390625 5.75 3.625 C12.60043303 13.15530903 23.09221521 19.8792813 34 24 C34 24.33 34 24.66 34 25 C32.25034642 25.05429959 30.50020213 25.09292823 28.75 25.125 C27.77546875 25.14820313 26.8009375 25.17140625 25.796875 25.1953125 C22.93372787 24.99537206 21.34844762 24.62667702 19 23 C18.67 22.01 18.34 21.02 18 20 C17.01 19.67 16.02 19.34 15 19 C15 18.01 15 17.02 15 16 C14.42636719 15.72671875 13.85273437 15.4534375 13.26171875 15.171875 C9.49649947 13.22098418 6.04389717 10.96727733 3 8 C2 4.625 2 4.625 2 2 C1.34 2 0.68 2 0 2 C0 1.34 0 0.68 0 0 Z " fill="#731114" transform="translate(34,103)"/>
<path d="M0 0 C2.79921583 4.19882375 1.86558093 6.12127113 1 11 C0 12 0 12 -3.375 12.1875 C-7 12 -7 12 -10 10 C-10.37033222 6.60528797 -10.60921702 4.11092516 -8.9375 1.0625 C-5.88907484 -0.60921702 -3.39471203 -0.37033222 0 0 Z " fill="#E45A50" transform="translate(119,69)"/>
<path d="M0 0 C0.8353125 1.2065625 0.8353125 1.2065625 1.6875 2.4375 C4.21864487 5.24228216 5.32579134 5.69381595 9 6 C9 6.99 9 7.98 9 9 C10.65 9 12.3 9 14 9 C14 9.99 14 10.98 14 12 C15.32 12.33 16.64 12.66 18 13 C18 13.33 18 13.66 18 14 C12.39 14 6.78 14 1 14 C0.67 11.69 0.34 9.38 0 7 C-0.66 7 -1.32 7 -2 7 C-1.34 4.69 -0.68 2.38 0 0 Z " fill="#9F2327" transform="translate(39,114)"/>
<path d="M0 0 C0.99 0 1.98 0 3 0 C4.38123963 1.96722008 5.71488126 3.96868328 7 6 C11.2382509 8.11912545 16.11812346 7.25196473 20.5 6 C21.325 5.67 22.15 5.34 23 5 C23 4.01 23 3.02 23 2 C24.32 2 25.64 2 27 2 C26.66960927 5.08364682 26.02342865 5.97847097 23.6875 8.125 C18.43807954 11.78738637 14.39452396 12.93801604 8 12 C4.58098455 9.91886016 2.04840466 7.44994469 0 4 C0 2.68 0 1.36 0 0 Z " fill="#F3E8E6" transform="translate(73,78)"/>
<path d="M0 0 C2 2 2 2 2.375 5.4375 C2 9 2 9 0.375 11 C-2.7551099 12.31794101 -4.75783109 11.81054223 -8 11 C-9.33045356 3.62203024 -9.33045356 3.62203024 -7.9375 1 C-5.16818287 -0.42932497 -3.06615383 -0.32618658 0 0 Z " fill="#E95A51" transform="translate(62,64)"/>
<path d="M0 0 C0.66 0 1.32 0 2 0 C2 0.66 2 1.32 2 2 C2.66 2 3.32 2 4 2 C3.835 2.680625 3.67 3.36125 3.5 4.0625 C2.73076134 8.58177712 2.54320802 12.62962405 4 17 C3.01 17 2.02 17 1 17 C1 19.97 1 22.94 1 26 C0.01 26 -0.98 26 -2 26 C-2.26197285 17.10747704 -1.6039348 8.75003718 0 0 Z " fill="#FAF2EE" transform="translate(107,65)"/>
<path d="M0 0 C5.22440104 0.32652507 9.38035275 3.3893345 13 7 C13 7.99 13 8.98 13 10 C13.99 10.33 14.98 10.66 16 11 C14.68 11 13.36 11 12 11 C12 10.01 12 9.02 12 8 C11.2575 8.103125 10.515 8.20625 9.75 8.3125 C7 8 7 8 4.6875 5.5 C4.130625 4.675 3.57375 3.85 3 3 C2.34 4.98 1.68 6.96 1 9 C1.99 8.67 2.98 8.34 4 8 C4 9.98 4 11.96 4 14 C3.34 14 2.68 14 2 14 C2 12.68 2 11.36 2 10 C1.34 10 0.68 10 0 10 C0 9.34 0 8.68 0 8 C-0.66 8 -1.32 8 -2 8 C-2.66 6.68 -3.32 5.36 -4 4 C-2.68 4 -1.36 4 0 4 C0 2.68 0 1.36 0 0 Z " fill="#8C212D" transform="translate(36,112)"/>
<path d="M0 0 C5.48290901 0.59357386 10.67033247 1.53742132 16 2.9375 C16.66 3.10701172 17.32 3.27652344 18 3.45117188 C19.32336635 3.79105991 20.6462922 4.13266814 21.96875 4.47607422 C25.30755539 5.33726128 28.65400538 6.16723571 32 7 C32 7.33 32 7.66 32 8 C20.83640202 7.27110529 10.65220294 5.39963924 0 2 C0 1.34 0 0.68 0 0 Z " fill="#DE5B39" transform="translate(88,120)"/>
<path d="M0 0 C1.7074998 1.28062485 3.37373596 2.61767557 5 4 C5 4.66 5 5.32 5 6 C5.99 6.33 6.98 6.66 8 7 C5.92446352 7.5534764 4.15634036 8 2 8 C2.33 9.98 2.66 11.96 3 14 C2.01 14.495 2.01 14.495 1 15 C-1.4750171 13.88568235 -3.67883419 12.41849022 -6 11 C-6 10.34 -6 9.68 -6 9 C-5.01 8.67 -4.02 8.34 -3 8 C-3 8.99 -3 9.98 -3 11 C-1.68 11 -0.36 11 1 11 C0.34 10.01 -0.32 9.02 -1 8 C-0.96856707 5.26009592 -0.44521663 2.71582146 0 0 Z " fill="#DC8937" transform="translate(14,74)"/>
<path d="M0 0 C6.93 0 13.86 0 21 0 C20.34 1.32 19.68 2.64 19 4 C16.3984375 4.828125 16.3984375 4.828125 13.375 5.25 C12.37210938 5.39953125 11.36921875 5.5490625 10.3359375 5.703125 C9.17964844 5.85007812 9.17964844 5.85007812 8 6 C8 4.68 8 3.36 8 2 C5.36 1.67 2.72 1.34 0 1 C0 0.67 0 0.34 0 0 Z " fill="#D4863B" transform="translate(8,53)"/>
<path d="M0 0 C0.89506817 2.96986552 1.03315169 5.25639788 0.66015625 8.328125 C0.56669922 9.12734375 0.47324219 9.9265625 0.37695312 10.75 C0.22129883 11.9875 0.22129883 11.9875 0.0625 13.25 C-0.08735352 14.51070312 -0.08735352 14.51070312 -0.24023438 15.796875 C-0.48704258 17.86536277 -0.74266284 19.93279572 -1 22 C-2.65 21.67 -4.3 21.34 -6 21 C-5.34 20.67 -4.68 20.34 -4 20 C-4.061875 18.906875 -4.12375 17.81375 -4.1875 16.6875 C-4.20705699 11.2310985 -2.74343607 6.13997475 -1 1 C-0.67 0.67 -0.34 0.34 0 0 Z " fill="#A03136" transform="translate(30,63)"/>
<path d="M0 0 C0.66 0.33 1.32 0.66 2 1 C2.625 3.5625 2.625 3.5625 3 6 C2.01 6 1.02 6 0 6 C-0.33 5.67 -0.66 5.34 -1 5 C-1 5.33 -1 5.66 -1 6 C-4.3 6.33 -7.6 6.66 -11 7 C-11 6.34 -11 5.68 -11 5 C-11.66 5 -12.32 5 -13 5 C-13 3.68 -13 2.36 -13 1 C-7.06 1.99 -7.06 1.99 -1 3 C-0.67 2.01 -0.34 1.02 0 0 Z " fill="#E15C53" transform="translate(121,81)"/>
<path d="M0 0 C0 0.33 0 0.66 0 1 C2.31 1.33 4.62 1.66 7 2 C7 2.66 7 3.32 7 4 C3.72586851 5.09870184 2.11415311 4.88182464 -1.0625 3.625 C-9.06740271 0.98084662 -17.64758722 1.2486858 -26 1 C-26 0.67 -26 0.34 -26 0 C-22.97950658 -0.19613594 -19.95894342 -0.38214855 -16.9375 -0.5625 C-16.08994141 -0.61857422 -15.24238281 -0.67464844 -14.36914062 -0.73242188 C-9.39662713 -1.02040528 -4.90223755 -0.89796753 0 0 Z " fill="#3C3B5F" transform="translate(103,27)"/>
<path d="M0 0 C0.33 0 0.66 0 1 0 C1 1.98 1 3.96 1 6 C1.66 6 2.32 6 3 6 C3.33 4.68 3.66 3.36 4 2 C4 2.66 4 3.32 4 4 C4.8971875 3.6596875 4.8971875 3.6596875 5.8125 3.3125 C6.8953125 3.1578125 6.8953125 3.1578125 8 3 C9.75 4.4375 9.75 4.4375 11 6 C10.67 6.99 10.34 7.98 10 9 C3.375 9.25 3.375 9.25 0 7 C-0.1875 3.375 -0.1875 3.375 0 0 Z " fill="#EB6A61" transform="translate(109,72)"/>
<path d="M0 0 C6.435 2.97 6.435 2.97 13 6 C13 6.33 13 6.66 13 7 C11.25034642 7.05429959 9.50020213 7.09292823 7.75 7.125 C6.77546875 7.14820313 5.8009375 7.17140625 4.796875 7.1953125 C1.9803502 6.99862781 0.39050964 6.44568916 -2 5 C-2 4.01 -2 3.02 -2 2 C-1.34 2 -0.68 2 0 2 C0 1.34 0 0.68 0 0 Z " fill="#7D171F" transform="translate(55,121)"/>
<path d="M0 0 C0 3.37731856 -0.45016914 3.9327964 -2.4375 6.5 C-4.19743883 8.78641626 -5.06651207 10.19953621 -6 13 C-6.99 13 -7.98 13 -9 13 C-9.4021875 14.2065625 -9.4021875 14.2065625 -9.8125 15.4375 C-10.204375 16.283125 -10.59625 17.12875 -11 18 C-11.99 18.33 -12.98 18.66 -14 19 C-11.29175673 11.42225529 -5.80075406 5.44919321 0 0 Z " fill="#CA5051" transform="translate(46,42)"/>
<path d="M0 0 C0.33 0 0.66 0 1 0 C1.07347656 1.04800781 1.07347656 1.04800781 1.1484375 2.1171875 C1.22320312 3.02726562 1.29796875 3.93734375 1.375 4.875 C1.44460937 5.77992187 1.51421875 6.68484375 1.5859375 7.6171875 C1.79568132 10.17941903 1.79568132 10.17941903 4 12 C4 12.99 4 13.98 4 15 C5.32 15.33 6.64 15.66 8 16 C7.01 16 6.02 16 5 16 C4.67 17.32 4.34 18.64 4 20 C3.67 19.34 3.34 18.68 3 18 C0.97536745 17.34786708 0.97536745 17.34786708 -1 17 C-1.12036664 11.22240116 -0.8320582 5.72040011 0 0 Z " fill="#E3685E" transform="translate(68,62)"/>
<path d="M0 0 C1.23104155 3.68400584 0.90767252 6.91474976 0.5625 10.75 C0.46066406 11.92046875 0.35882813 13.0909375 0.25390625 14.296875 C0.17011719 15.18890625 0.08632812 16.0809375 0 17 C-0.33 17 -0.66 17 -1 17 C-1.33 15.02 -1.66 13.04 -2 11 C-2.598125 11.350625 -3.19625 11.70125 -3.8125 12.0625 C-6 13 -6 13 -9 12 C-7.68 11.01 -6.36 10.02 -5 9 C-4.67 9.33 -4.34 9.66 -4 10 C-3.01879536 6.94736336 -3.01879536 5.05263664 -4 2 C-2.68 2.33 -1.36 2.66 0 3 C0 2.01 0 1.02 0 0 Z " fill="#E7645E" transform="translate(105,74)"/>
<path d="M0 0 C3.63 0.33 7.26 0.66 11 1 C10.67 2.98 10.34 4.96 10 7 C9.34 7 8.68 7 8 7 C7.34 6.01 6.68 5.02 6 4 C4.03638136 3.42251197 4.03638136 3.42251197 1.875 3.3125 C0.59625 3.209375 -0.6825 3.10625 -2 3 C-1.34 2.01 -0.68 1.02 0 0 Z " fill="#F6F0ED" transform="translate(56,61)"/>
<path d="M0 0 C0.33 0.99 0.66 1.98 1 3 C1.66 3 2.32 3 3 3 C5.29013653 6.4352048 5.17842973 7.985331 5 12 C3.68 12 2.36 12 1 12 C-0.47075246 7.58774263 -1.36884358 4.51718381 0 0 Z " fill="#9D1C22" transform="translate(31,104)"/>
<path d="M0 0 C1.32 0 2.64 0 4 0 C3.69389719 2.85695952 2.93065009 4.08277248 1.0625 6.3125 C-3.39731166 8.76994724 -7.11903861 7.87193873 -12 7 C-12 6.67 -12 6.34 -12 6 C-6 4.5 -6 4.5 0 3 C0 2.01 0 1.02 0 0 Z " fill="#F8DEDC" transform="translate(96,80)"/>
<path d="M0 0 C0.99 0.33 1.98 0.66 3 1 C2.01 2.485 2.01 2.485 1 4 C0.75892674 6.28648848 0.75892674 6.28648848 0.875 8.6875 C0.89304687 9.49574219 0.91109375 10.30398437 0.9296875 11.13671875 C0.95289063 11.75160156 0.97609375 12.36648437 1 13 C1.99 13.33 2.98 13.66 4 14 C3.01 14.495 3.01 14.495 2 15 C2.33 16.32 2.66 17.64 3 19 C1 19 1 19 -0.640625 17.9765625 C-2.73884425 14.92570348 -2.10055949 11.89382354 -1.75 8.375 C-1.69714844 7.68148437 -1.64429688 6.98796875 -1.58984375 6.2734375 C-1.1604311 1.1604311 -1.1604311 1.1604311 0 0 Z " fill="#E68D3D" transform="translate(10,59)"/>
<path d="M0 0 C0.55945313 0.17015625 1.11890625 0.3403125 1.6953125 0.515625 C9.10785935 2.75607324 16.55068688 4.88542553 24 7 C24 7.33 24 7.66 24 8 C15.60286833 7.6284455 7.55804976 5.77902488 0 2 C0 1.34 0 0.68 0 0 Z " fill="#DE5B39" transform="translate(64,112)"/>
<path d="M0 0 C2.00698975 1.3227887 4.00591923 2.65783025 6 4 C6.78375 4.515625 7.5675 5.03125 8.375 5.5625 C8.91125 6.036875 9.4475 6.51125 10 7 C10 7.99 10 8.98 10 10 C10.99 10.33 11.98 10.66 13 11 C11.68 11 10.36 11 9 11 C9 10.01 9 9.02 9 8 C8.2575 8.12375 7.515 8.2475 6.75 8.375 C4 8 4 8 1.6875 5.125 C0 2 0 2 0 0 Z " fill="#8A1C20" transform="translate(39,112)"/>
<path d="M0 0 C2 2 2 2 2 5 C2.66 5 3.32 5 4 5 C4.33 6.65 4.66 8.3 5 10 C4.01 10 3.02 10 2 10 C2 9.34 2 8.68 2 8 C1.01 8 0.02 8 -1 8 C-1.33 6.02 -1.66 4.04 -2 2 C-1.34 2 -0.68 2 0 2 C0 1.34 0 0.68 0 0 Z " fill="#2D335A" transform="translate(27,104)"/>
<path d="M0 0 C0.66 0 1.32 0 2 0 C2.10349817 6.41688675 1.74507544 12.62694402 1 19 C0.01 18.67 -0.98 18.34 -2 18 C-1.34 18 -0.68 18 0 18 C0 15.69 0 13.38 0 11 C-0.66 11 -1.32 11 -2 11 C-2 9.68 -2 8.36 -2 7 C-1.34 7 -0.68 7 0 7 C0 4.69 0 2.38 0 0 Z " fill="#F7DED9" transform="translate(66,61)"/>
<path d="M0 0 C0.66 0.33 1.32 0.66 2 1 C1.67 2.65 1.34 4.3 1 6 C-1.475 5.505 -1.475 5.505 -4 5 C-4.33 5.66 -4.66 6.32 -5 7 C-5 6.34 -5 5.68 -5 5 C-9.29 5 -13.58 5 -18 5 C-18 4.67 -18 4.34 -18 4 C-9.585 3.505 -9.585 3.505 -1 3 C-0.67 2.01 -0.34 1.02 0 0 Z " fill="#40465F" transform="translate(34,48)"/>
<path d="M0 0 C0.33 0.66 0.66 1.32 1 2 C-0.32 2 -1.64 2 -3 2 C-3 2.66 -3 3.32 -3 4 C-5.97 3.505 -5.97 3.505 -9 3 C-9 2.34 -9 1.68 -9 1 C-5.63579264 -0.58865348 -3.5299383 -1.5128307 0 0 Z " fill="#EF5C54" transform="translate(89,82)"/>
<path d="M0 0 C1.58624235 0.42683239 3.1689098 0.86696158 4.75 1.3125 C6.07257812 1.67794922 6.07257812 1.67794922 7.421875 2.05078125 C10.05772505 3.02125331 11.85407326 4.21005644 14 6 C8.58609132 5.53328373 4.79482068 4.75702189 0 2 C0 1.34 0 0.68 0 0 Z " fill="#DF5D37" transform="translate(48,106)"/>
<path d="M0 0 C1.65 0.33 3.3 0.66 5 1 C3.125 5.75 3.125 5.75 2 8 C-0.31 8 -2.62 8 -5 8 C-2 6 -2 6 1 6 C0.67 4.02 0.34 2.04 0 0 Z " fill="#1D3759" transform="translate(30,53)"/>
<path d="M0 0 C-1.485 1.485 -1.485 1.485 -3 3 C-1.68 4.32 -0.36 5.64 1 7 C0.01 7 -0.98 7 -2 7 C-2 6.34 -2 5.68 -2 5 C-3.32 4.67 -4.64 4.34 -6 4 C-6 2.68 -6 1.36 -6 0 C-3.50907189 -1.24546405 -2.58919267 -0.7767578 0 0 Z " fill="#F89129" transform="translate(22,84)"/>
<path d="M0 0 C1.32 0.33 2.64 0.66 4 1 C4 1.99 4 2.98 4 4 C5.32 4.33 6.64 4.66 8 5 C8 5.99 8 6.98 8 8 C5.04987143 6.63029745 2.4347778 5.17390875 0 3 C0 2.01 0 1.02 0 0 Z " fill="#E28B37" transform="translate(0,75)"/>
<path d="M0 0 C0.66 0.33 1.32 0.66 2 1 C2.625 3.5625 2.625 3.5625 3 6 C2.01 6 1.02 6 0 6 C-0.33 5.67 -0.66 5.34 -1 5 C-1.99 5 -2.98 5 -4 5 C-6.1875 4 -6.1875 4 -8 3 C-5.69 3 -3.38 3 -1 3 C-0.67 2.01 -0.34 1.02 0 0 Z " fill="#E7645C" transform="translate(121,81)"/>
<path d="M0 0 C0.33 0 0.66 0 1 0 C1.309375 1.093125 1.61875 2.18625 1.9375 3.3125 C2.58337897 5.55407994 3.2623117 7.7869351 4 10 C3.01 10 2.02 10 1 10 C1 11.32 1 12.64 1 14 C0.34 14 -0.32 14 -1 14 C-0.67 9.38 -0.34 4.76 0 0 Z " fill="#F3FBF7" transform="translate(107,72)"/>
<path d="M0 0 C0.33 0.99 0.66 1.98 1 3 C2.65 2.67 4.3 2.34 6 2 C6.33 3.32 6.66 4.64 7 6 C6.01 6.495 6.01 6.495 5 7 C2.5249829 5.88568235 0.32116581 4.41849022 -2 3 C-2 2.34 -2 1.68 -2 1 C-1.34 0.67 -0.68 0.34 0 0 Z " fill="#D1883C" transform="translate(10,82)"/>
<path d="M0 0 C0.33 0 0.66 0 1 0 C1.33 4.29 1.66 8.58 2 13 C0.35 12.67 -1.3 12.34 -3 12 C-2.34 11.67 -1.68 11.34 -1 11 C-1.020625 9.741875 -1.04125 8.48375 -1.0625 7.1875 C-1.10886083 4.35948913 -0.91692961 2.75078884 0 0 Z " fill="#641925" transform="translate(27,72)"/>
<path d="M0 0 C0.33 0.99 0.66 1.98 1 3 C1.66 2.67 2.32 2.34 3 2 C2.46930939 5.82097239 1.50298434 8.06171403 -1 11 C-2.50662097 7.98675805 -2.17770373 5.31713623 -2 2 C-1.34 1.34 -0.68 0.68 0 0 Z " fill="#40435C" transform="translate(12,61)"/>
<path d="M0 0 C2.375 -0.125 2.375 -0.125 5 0 C5.66 0.66 6.32 1.32 7 2 C6.625 4.125 6.625 4.125 6 6 C5.38125 5.67 4.7625 5.34 4.125 5 C2.08981656 3.85806765 2.08981656 3.85806765 0 4 C0 2.68 0 1.36 0 0 Z " fill="#ED5449" transform="translate(113,72)"/>
<path d="M0 0 C0.33 0 0.66 0 1 0 C1 2.64 1 5.28 1 8 C1.66 8 2.32 8 3 8 C3 9.65 3 11.3 3 13 C2.01 13 1.02 13 0 13 C0 8.71 0 4.42 0 0 Z " fill="#FBE4DE" transform="translate(105,78)"/>
<path d="M0 0 C2.64 1.65 5.28 3.3 8 5 C5.07175348 5.97608217 3.04386724 6.08226668 0 6 C0 4.02 0 2.04 0 0 Z " fill="#303C5E" transform="translate(0,78)"/>
<path d="M0 0 C0.66 0 1.32 0 2 0 C2 0.66 2 1.32 2 2 C3.32 2.66 4.64 3.32 6 4 C6 4.66 6 5.32 6 6 C4.68 6 3.36 6 2 6 C1.67 5.34 1.34 4.68 1 4 C0.34 4 -0.32 4 -1 4 C-0.67 2.68 -0.34 1.36 0 0 Z " fill="#F79231" transform="translate(9,79)"/>
<path d="M0 0 C0.66 0 1.32 0 2 0 C2.33 1.65 2.66 3.3 3 5 C3.66 4.67 4.32 4.34 5 4 C5 4.99 5 5.98 5 7 C2.03824877 6.38722388 0.61941217 5.74627478 -2 4 C-2 3.34 -2 2.68 -2 2 C-1.34 2 -0.68 2 0 2 C0 1.34 0 0.68 0 0 Z " fill="#303A55" transform="translate(21,76)"/>
<path d="M0 0 C2.95409701 1.37154504 5.44008376 2.98863724 8 5 C5.69 5 3.38 5 1 5 C0.67 3.35 0.34 1.7 0 0 Z " fill="#2E3B5D" transform="translate(13,88)"/>
<path d="M0 0 C1.32 0 2.64 0 4 0 C4 0.66 4 1.32 4 2 C4.99 2 5.98 2 7 2 C7.33 1.34 7.66 0.68 8 0 C8 0.66 8 1.32 8 2 C8.66 2.33 9.32 2.66 10 3 C9.34 3 8.68 3 8 3 C8 3.66 8 4.32 8 5 C4.62496331 3.8141763 2.35277269 2.72426311 0 0 Z " fill="#D68A3F" transform="translate(16,89)"/>
<path d="M0 0 C0.33 0 0.66 0 1 0 C1.18175781 0.84884766 1.18175781 0.84884766 1.3671875 1.71484375 C1.53476562 2.44832031 1.70234375 3.18179688 1.875 3.9375 C2.03742187 4.66839844 2.19984375 5.39929688 2.3671875 6.15234375 C2.82961523 8.20700294 2.82961523 8.20700294 5 9 C5 9.66 5 10.32 5 11 C3.68 11 2.36 11 1 11 C-0.28317892 7.15046324 -0.06643637 4.05261865 0 0 Z " fill="#CE5B59" transform="translate(49,68)"/>
<path d="M0 0 C0.99 0 1.98 0 3 0 C3.66 1.65 4.32 3.3 5 5 C4.01 5.33 3.02 5.66 2 6 C1.34 5.34 0.68 4.68 0 4 C0 2.68 0 1.36 0 0 Z " fill="#F8E4E4" transform="translate(73,78)"/>
<path d="M0 0 C1.485 0.99 1.485 0.99 3 2 C3 3.32 3 4.64 3 6 C3.66 6.33 4.32 6.66 5 7 C4.34 7.66 3.68 8.32 3 9 C0.90250005 6.64031256 0.03094296 5.45383006 -0.1875 2.25 C-0.125625 1.5075 -0.06375 0.765 0 0 Z " fill="#23356D" transform="translate(12,67)"/>
<path d="M0 0 C1.65 0 3.3 0 5 0 C4.01 0.495 4.01 0.495 3 1 C3.66 2.32 4.32 3.64 5 5 C2.36 4.67 -0.28 4.34 -3 4 C-2.01 3.34 -1.02 2.68 0 2 C0 1.34 0 0.68 0 0 Z " fill="#E66F64" transform="translate(59,57)"/>
<path d="M0 0 C2.97 0 5.94 0 9 0 C9 0.66 9 1.32 9 2 C6.21176345 3.0326802 5.1322726 3.04509293 2.25 2.0625 C1.5075 1.711875 0.765 1.36125 0 1 C0 0.67 0 0.34 0 0 Z " fill="#30365F" transform="translate(101,29)"/>
</svg>
