<?xml version="1.0" encoding="UTF-8"?>
<svg version="1.1" xmlns="http://www.w3.org/2000/svg" width="128" height="128">
<path d="M0 0 C42.24 0 84.48 0 128 0 C128 42.24 128 84.48 128 128 C85.76 128 43.52 128 0 128 C0 85.76 0 43.52 0 0 Z " fill="#CBD5E6" transform="translate(0,0)"/>
<path d="M0 0 C3.28550051 1.34063527 6.35592385 2.71184771 8 6 C8.11838695 7.73566992 8.17904319 9.47543342 8.2109375 11.21484375 C8.23712158 12.28404053 8.26330566 13.3532373 8.2902832 14.45483398 C8.31823975 15.60411377 8.34619629 16.75339355 8.375 17.9375 C8.87380852 33.54155502 11.25613208 48.29859928 14.6418457 63.50952148 C17.22886547 75.21221607 19.81249345 88.99778025 14 100 C11.56982249 102.77734572 10.24843496 102.96386401 6.5625 103.5 C3 103 3 103 0.1875 100.9375 C-3.7624105 95.63333447 -4.25693634 89.91603488 -4.5625 83.44921875 C-4.61772827 82.40094658 -4.61772827 82.40094658 -4.67407227 81.33149719 C-4.79039887 79.11713934 -4.89642576 76.90248846 -5 74.6875 C-5.60604316 61.23519563 -5.60604316 61.23519563 -8 48 C-12.92538584 62.61945744 -12.92538584 62.61945744 -17.625 77.3125 C-18.016875 78.570625 -18.40875 79.82875 -18.8125 81.125 C-19.66592742 83.89010483 -20.49335886 86.66205708 -21.3125 89.4375 C-21.53212402 90.16928467 -21.75174805 90.90106934 -21.97802734 91.6550293 C-22.39788617 93.05513966 -22.81013759 94.45756239 -23.21337891 95.86254883 C-24.24289364 99.27287096 -25.05328434 101.86849248 -28 104 C-30.81086123 104.93695374 -32.93863972 105.29023573 -35.875 105.4375 C-36.71804687 105.49808594 -37.56109375 105.55867188 -38.4296875 105.62109375 C-41.58349867 104.8590026 -42.97751688 103.40746633 -44.90625 100.84350586 C-46.8279874 97.60443463 -47.68441705 94.20038398 -48.5625 90.5625 C-48.76593018 89.77770264 -48.96936035 88.99290527 -49.17895508 88.18432617 C-49.59545214 86.57440171 -50.00555378 84.96280889 -50.40917969 83.34960938 C-51.13420988 80.46626617 -51.90118628 77.59531345 -52.67358398 74.72436523 C-53.15635041 72.9283824 -53.63118506 71.13027282 -54.10546875 69.33203125 C-55.03324354 65.87617145 -56.00835602 62.43799037 -57 59 C-62.07216143 67.92000803 -63.94238742 77.11146984 -64.5 87.3125 C-64.86006452 93.65245958 -65.41313495 99.0435828 -69.75 104 C-73.08910495 105.48404664 -75.38844414 105.50688503 -79 105 C-82.90376298 101.87698962 -85.55804248 98.7122235 -86.37109375 93.72265625 C-86.77540257 77.5265205 -80.76588099 61.96935709 -75.31005859 46.98095703 C-72.18575668 38.15254631 -70.18120419 29.33079213 -68.671875 20.09472656 C-67.4497997 12.93042854 -65.81151985 8.88750688 -60.6875 3.625 C-57.15557626 1.48941821 -55.07292997 1.49981562 -51 2 C-47.72808708 3.35815253 -45.50104494 4.49895506 -43 7 C-42.72875977 9.04931641 -42.72875977 9.04931641 -42.69140625 11.6015625 C-42.66844482 12.55490479 -42.6454834 13.50824707 -42.62182617 14.49047852 C-42.60224854 15.52487061 -42.5826709 16.5592627 -42.5625 17.625 C-42.01096545 35.40158937 -40.37383465 52.97831055 -35 70 C-28.87856628 54.95427829 -24.67343516 39.38717704 -20.62109375 23.67578125 C-18.36985774 15.04402285 -16.32109862 7.76810883 -10.1875 1 C-6.79206996 -0.55219659 -3.61254792 -0.6244739 0 0 Z " fill="#FE8C15" transform="translate(97,11)"/>
<path d="M0 0 C42.24 0 84.48 0 128 0 C128 42.24 128 84.48 128 128 C85.76 128 43.52 128 0 128 C0 85.76 0 43.52 0 0 Z M11.1875 14 C7.73885622 18.72956862 7.84671804 22.68636239 7.83886719 28.32348633 C7.83390228 29.17260086 7.82893738 30.02171539 7.82382202 30.89656067 C7.80920547 33.70839242 7.80239906 36.52016774 7.796875 39.33203125 C7.79112291 41.28635154 7.78536519 43.24067181 7.77960205 45.19499207 C7.76909336 49.29479231 7.7632499 53.39457295 7.75976562 57.49438477 C7.7542827 62.74347769 7.73025836 67.99231098 7.70179367 73.24132252 C7.68315401 77.27940117 7.67796097 81.31741747 7.67642975 85.35553551 C7.67340545 87.29039618 7.66538442 89.22525581 7.65224457 91.16007423 C7.6351572 93.86969272 7.63707093 96.57867931 7.64355469 99.28833008 C7.6343399 100.08491028 7.62512512 100.88149048 7.6156311 101.70220947 C7.65679617 107.20422164 8.65910937 111.4335548 12.5 115.64453125 C17.84949148 119.8098905 21.74169964 120.15196632 28.32348633 120.16113281 C29.17260086 120.16609772 30.02171539 120.17106262 30.89656067 120.17617798 C33.70839242 120.19079453 36.52016774 120.19760094 39.33203125 120.203125 C41.28635154 120.20887709 43.24067181 120.21463481 45.19499207 120.22039795 C49.29479231 120.23090664 53.39457295 120.2367501 57.49438477 120.24023438 C62.74347769 120.2457173 67.99231098 120.26974164 73.24132252 120.29820633 C77.27940117 120.31684599 81.31741747 120.32203903 85.35553551 120.32357025 C87.29039618 120.32659455 89.22525581 120.33461558 91.16007423 120.34775543 C93.86969272 120.3648428 96.57867931 120.36292907 99.28833008 120.35644531 C100.48320038 120.37026749 100.48320038 120.37026749 101.70220947 120.3843689 C107.20422164 120.34320383 111.4335548 119.34089063 115.64453125 115.5 C119.8098905 110.15050852 120.15196632 106.25830036 120.16113281 99.67651367 C120.16609772 98.82739914 120.17106262 97.97828461 120.17617798 97.10343933 C120.19079453 94.29160758 120.19760094 91.47983226 120.203125 88.66796875 C120.20887709 86.71364846 120.21463481 84.75932819 120.22039795 82.80500793 C120.23090664 78.70520769 120.2367501 74.60542705 120.24023438 70.50561523 C120.2457173 65.25652231 120.26974164 60.00768902 120.29820633 54.75867748 C120.31684599 50.72059883 120.32203903 46.68258253 120.32357025 42.64446449 C120.32659455 40.70960382 120.33461558 38.77474419 120.34775543 36.83992577 C120.3648428 34.13030728 120.36292907 31.42132069 120.35644531 28.71166992 C120.3656601 27.91508972 120.37487488 27.11850952 120.3843689 26.29779053 C120.34320383 20.79577836 119.34089063 16.5664452 115.5 12.35546875 C110.15050852 8.1901095 106.25830036 7.84803368 99.67651367 7.83886719 C98.82739914 7.83390228 97.97828461 7.82893738 97.10343933 7.82382202 C94.29160758 7.80920547 91.47983226 7.80239906 88.66796875 7.796875 C86.71364846 7.79112291 84.75932819 7.78536519 82.80500793 7.77960205 C78.70520769 7.76909336 74.60542705 7.7632499 70.50561523 7.75976562 C65.25652231 7.7542827 60.00768902 7.73025836 54.75867748 7.70179367 C50.72059883 7.68315401 46.68258253 7.67796097 42.64446449 7.67642975 C40.70960382 7.67340545 38.77474419 7.66538442 36.83992577 7.65224457 C34.13030728 7.6351572 31.42132069 7.63707093 28.71166992 7.64355469 C27.91508972 7.6343399 27.11850952 7.62512512 26.29779053 7.6156311 C20.22624359 7.66105732 15.09252489 8.98485098 11.1875 14 Z " fill="#919FAC" transform="translate(0,0)"/>
<path d="M0 0 C1.07378227 1.6106734 2.13554812 3.23162083 3.11328125 4.90234375 C7.48537209 12.32208098 11.93032345 15.26451642 20 18 C20 18.33 20 18.66 20 19 C13.4 19 6.8 19 0 19 C0 12.73 0 6.46 0 0 Z " fill="#FAFAFB" transform="translate(0,109)"/>
<path d="M0 0 C6.27 0 12.54 0 19 0 C19 6.6 19 13.2 19 20 C18.34 18.68 17.68 17.36 17 16 C12.66704404 8.21588263 8.30088156 4.25524767 0 1 C0 0.67 0 0.34 0 0 Z " fill="#FAFBFB" transform="translate(109,0)"/>
<path d="M0 0 C6.6 0 13.2 0 20 0 C18.02 0.99 18.02 0.99 16 2 C8.61321867 6.11178257 4.61798154 10.22133969 1 18 C0.67 18 0.34 18 0 18 C0 12.06 0 6.12 0 0 Z " fill="#FAFBFB" transform="translate(0,0)"/>
<path d="M0 0 C0.33 0 0.66 0 1 0 C1 6.27 1 12.54 1 19 C-5.27 19 -11.54 19 -18 19 C-15.7120158 17.4746772 -13.41522044 16.04295436 -11.0625 14.625 C-4.63141264 10.56140084 -2.38735698 7.16207093 0 0 Z " fill="#FBFBFC" transform="translate(127,109)"/>
</svg>
