<?xml version="1.0" encoding="UTF-8"?>
<svg version="1.1" xmlns="http://www.w3.org/2000/svg" width="128" height="128">
<path d="M0 0 C42.24 0 84.48 0 128 0 C128 42.24 128 84.48 128 128 C85.76 128 43.52 128 0 128 C0 85.76 0 43.52 0 0 Z " fill="#55A4FF" transform="translate(0,0)"/>
<path d="M0 0 C1.13199353 0.9080162 2.25532363 1.82683826 3.375 2.75 C4.00148438 3.26046875 4.62796875 3.7709375 5.2734375 4.296875 C7.08312318 6.08199481 8.00117455 7.67949644 9 10 C8.08476563 10.88042969 7.16953125 11.76085938 6.2265625 12.66796875 C5.02564498 13.84073976 3.82514602 15.01393949 2.625 16.1875 C2.02171875 16.76564453 1.4184375 17.34378906 0.796875 17.93945312 C-3.63357722 22.29606448 -6.25759903 25.89066698 -6.375 32.3125 C-6.26047524 37.21252383 -4.79666158 40.99397125 -2 45 C0.10575643 46.83300909 0.10575643 46.83300909 2 48 C2 48.66 2 49.32 2 50 C8.23694332 51.66318489 15.23821343 52.44416306 21 49.125 C26.2352554 45.42384608 30.60619793 40.63690177 35 36 C39.29378813 37.92287034 41.77153701 40.62478869 45 44 C41.13684437 52.73577906 31.92279661 59.64585472 23.21875 63.10546875 C13.93221516 65.90364833 4.84856722 65.2293782 -3.875 60.875 C-11.65682908 55.97744518 -16.84239539 48.95341316 -19 40 C-20.00615784 30.25682602 -19.30052553 20.96186935 -12.99609375 13.1953125 C-8.8387433 8.62304058 -4.43907107 4.29689442 0 0 Z " fill="#FBFCFF" transform="translate(45,38)"/>
<path d="M0 0 C3.43753338 1.93361253 6.2400778 4.41517505 7.859375 8.05859375 C8 10.125 8 10.125 6.56640625 12.046875 C5.90511719 12.65015625 5.24382812 13.2534375 4.5625 13.875 C3.57443359 14.79539062 3.57443359 14.79539062 2.56640625 15.734375 C2.04949219 16.19328125 1.53257813 16.6521875 1 17.125 C-3.29378813 15.20212966 -5.77153701 12.50021131 -9 9.125 C-7.39777473 5.19226526 -4.59354558 0.2870966 0 0 Z " fill="#F0F7FF" transform="translate(95,60.875)"/>
<path d="M0 0 C3.51018171 1.53007921 5.72355476 3.41467379 7.26171875 6.96484375 C7.4375 9.0625 7.4375 9.0625 6.00390625 10.984375 C5.34261719 11.58765625 4.68132812 12.1909375 4 12.8125 C3.01193359 13.73289062 3.01193359 13.73289062 2.00390625 14.671875 C1.48699219 15.13078125 0.97007813 15.5896875 0.4375 16.0625 C-3.33769562 14.30020311 -5.86979323 12.29374812 -8.5625 9.0625 C-8.76069145 5.89143677 -7.30659918 4.74262397 -5.3125 2.25 C-2.5625 0.0625 -2.5625 0.0625 0 0 Z " fill="#F7FAFF" transform="translate(59.5625,25.9375)"/>
<path d="M0 0 C0.33 0 0.66 0 1 0 C1 3.3 1 6.6 1 10 C-2.3 10 -5.6 10 -9 10 C-8.2575 9.46375 -7.515 8.9275 -6.75 8.375 C-3.82649095 5.85015128 -2.06298806 3.24183838 0 0 Z " fill="#47704C" transform="translate(127,118)"/>
<path d="M0 0 C0.53625 0.7425 1.0725 1.485 1.625 2.25 C4.14984872 5.17350905 6.75816162 6.93701194 10 9 C10 9.33 10 9.66 10 10 C6.7 10 3.4 10 0 10 C0 6.7 0 3.4 0 0 Z " fill="#47704C" transform="translate(0,118)"/>
<path d="M0 0 C3.3 0 6.6 0 10 0 C10 3.3 10 6.6 10 10 C9.46375 9.2575 8.9275 8.515 8.375 7.75 C5.85015128 4.82649095 3.24183838 3.06298806 0 1 C0 0.67 0 0.34 0 0 Z " fill="#47704C" transform="translate(118,0)"/>
<path d="M0 0 C3.3 0 6.6 0 10 0 C9.2575 0.53625 8.515 1.0725 7.75 1.625 C4.82649095 4.14984872 3.06298806 6.75816162 1 10 C0.67 10 0.34 10 0 10 C0 6.7 0 3.4 0 0 Z " fill="#47704C" transform="translate(0,0)"/>
</svg>
