<?xml version="1.0" encoding="UTF-8"?>
<svg version="1.1" xmlns="http://www.w3.org/2000/svg" width="128" height="128">
<path d="M0 0 C42.24 0 84.48 0 128 0 C128 42.24 128 84.48 128 128 C85.76 128 43.52 128 0 128 C0 85.76 0 43.52 0 0 Z " fill="#2E51A2" transform="translate(0,0)"/>
<path d="M0 0 C8 0 8 0 10.0234375 1.75 C10.46945313 2.4925 10.91546875 3.235 11.375 4 C12.21686026 5.35450142 13.08465701 6.69403293 14 8 C14.66 8 15.32 8 16 8 C17.42295346 5.96979889 18.700076 3.87501799 19.9765625 1.75 C22 0 22 0 30 0 C30 10.23 30 20.46 30 31 C27.36 31 24.72 31 22 31 C21.67 25.39 21.34 19.78 21 14 C19.35 15.98 17.7 17.96 16 20 C12.83884224 18.63016497 12.0072908 18.0109362 10 15 C9.67 20.28 9.34 25.56 9 31 C6.03 31 3.06 31 0 31 C0 20.77 0 10.54 0 0 Z " fill="#F9F9FC" transform="translate(21,46)"/>
<path d="M0 0 C0.66 2.31 1.32 4.62 2 7 C1.02417969 7.02578125 0.04835938 7.0515625 -0.95703125 7.078125 C-2.22933594 7.13484375 -3.50164062 7.1915625 -4.8125 7.25 C-6.70935547 7.31960937 -6.70935547 7.31960937 -8.64453125 7.390625 C-12.02955113 7.67991803 -12.02955113 7.67991803 -13.88671875 9.859375 C-15.11601465 12.08609098 -15.11601465 12.08609098 -16 15 C-13.36 15 -10.72 15 -8 15 C-8 13.02 -8 11.04 -8 9 C-5.03 9 -2.06 9 1 9 C1 16.26 1 23.52 1 31 C-2.3 31 -5.6 31 -9 31 C-9 28.03 -9 25.06 -9 22 C-11.64 22 -14.28 22 -17 22 C-16.649375 22.886875 -16.29875 23.77375 -15.9375 24.6875 C-14.9692546 28.10863374 -14.63820477 29.73169145 -16 33 C-18.55859375 34.140625 -18.55859375 34.140625 -21 35 C-25.22248972 26.98857976 -26.48698621 18.97181614 -25 10 C-22.69368792 5.486501 -19.68816936 2.94223406 -15.3125 0.5 C-10.21185729 -0.26990833 -5.14685863 -0.1499085 0 0 Z " fill="#F7F8FB" transform="translate(81,46)"/>
<path d="M0 0 C2.64 0 5.28 0 8 0 C8 8.25 8 16.5 8 25 C11.3 25 14.6 25 18 25 C17.67 26.98 17.34 28.96 17 31 C11.39 31 5.78 31 0 31 C0 20.77 0 10.54 0 0 Z " fill="#F7F8FB" transform="translate(88,46)"/>
</svg>
